<svg width="647" height="329" viewBox="0 0 647 329" fill="none" xmlns="http://www.w3.org/2000/svg">
<mask id="path-1-outside-1_1270_32957" maskUnits="userSpaceOnUse" x="0" y="0.460938" width="647" height="329" fill="black">
<rect fill="white" y="0.460938" width="647" height="329"/>
<path fill-rule="evenodd" clip-rule="evenodd" d="M322.591 80.6655C322.591 123.771 288.786 157.87 246.091 157.87C203.396 157.87 169.591 123.771 169.591 80.6655C169.591 37.5602 203.396 3.46094 246.091 3.46094C288.786 3.46094 322.591 37.5602 322.591 80.6655ZM323.591 80.6655C323.591 124.315 289.347 158.87 246.091 158.87C202.835 158.87 168.591 124.315 168.591 80.6655C168.591 37.0164 202.835 2.46094 246.091 2.46094C289.347 2.46094 323.591 37.0164 323.591 80.6655ZM3.06417 248.686V248.666L3.06333 248.645C1.30179 205.686 36.5423 169.87 78.8275 169.87C119.305 169.87 154.591 205.672 154.591 248.686C154.591 291.685 121.105 325.688 78.8275 325.688C36.5502 325.688 3.06417 291.685 3.06417 248.686ZM78.8275 326.688C35.9829 326.688 2.06417 292.222 2.06417 248.686C0.278978 205.15 35.9829 168.87 78.8275 168.87C119.887 168.87 155.591 205.15 155.591 248.686C155.591 292.222 121.672 326.688 78.8275 326.688ZM316.591 248.686C316.591 291.676 282.788 325.688 240.091 325.688C197.393 325.688 163.591 291.676 163.591 248.686C163.591 205.666 197.423 169.87 240.091 169.87C282.759 169.87 316.591 205.666 316.591 248.686ZM317.591 248.686C317.591 292.222 283.347 326.688 240.091 326.688C196.835 326.688 162.591 292.222 162.591 248.686C162.591 205.15 196.835 168.87 240.091 168.87C283.347 168.87 317.591 205.15 317.591 248.686ZM401.817 171.344H401.795C359.502 171.344 326 205.421 326 248.516C326 291.612 359.502 325.688 401.795 325.688C444.089 325.688 477.591 291.612 477.591 248.516C477.591 205.38 444.06 169.553 401.838 171.344L401.817 171.344ZM401.795 170.344C358.933 170.344 325 204.885 325 248.516C325 292.147 358.933 326.688 401.795 326.688C444.658 326.688 478.591 292.147 478.591 248.516C478.591 204.885 444.658 168.526 401.795 170.344ZM407.795 157.87C450.089 157.87 483.591 123.779 483.591 80.6655C483.591 37.5515 450.089 3.46094 407.795 3.46094C365.502 3.46094 332 37.5515 332 80.6655C332 123.779 365.502 157.87 407.795 157.87ZM407.795 158.87C450.658 158.87 484.591 124.315 484.591 80.6655C484.591 37.0164 450.658 2.46094 407.795 2.46094C364.933 2.46094 331 37.0164 331 80.6655C331 124.315 364.933 158.87 407.795 158.87ZM644 80.6655C644 123.779 610.498 157.87 568.205 157.87C525.911 157.87 492.409 123.779 492.409 80.6655C492.409 37.5515 525.911 3.46094 568.205 3.46094C608.727 3.46094 644 37.5667 644 80.6655ZM645 80.6655C645 124.315 611.067 158.87 568.205 158.87C525.342 158.87 491.409 124.315 491.409 80.6655C491.409 37.0164 525.342 2.46094 568.205 2.46094C609.281 2.46094 645 37.0164 645 80.6655ZM153.235 98.4326V128.108H137.588V161H99.7158V128.108H39.773L37.5237 104.94L99.7158 4.90134V4.01562H137.588V98.4326H153.235ZM136.588 99.4326H152.235V127.108H136.588V160H100.716V127.108H40.6807L38.5518 105.181L100.716 5.18685V5.01562H136.588V99.4326ZM100.716 99.4326H72.8271L98.374 55.3643L100.716 51.5315V99.4326ZM99.7158 98.4326V55.0862L99.2335 55.8756L74.5627 98.4326H99.7158ZM606.235 293.108V263.433H590.588V169.016H552.716V169.901L490.524 269.94L492.773 293.108H552.716V326H590.588V293.108H606.235ZM605.235 264.433H589.588V170.016H553.716V170.187L491.552 270.181L493.681 292.108H553.716V325H589.588V292.108H605.235V264.433ZM525.827 264.433H553.716V216.531L551.374 220.364L525.827 264.433ZM552.716 220.086V263.433H527.563L552.233 220.876L552.716 220.086Z"/>
</mask>
<path d="M3.06417 248.666H5.06417V248.625L5.06249 248.584L3.06417 248.666ZM3.06333 248.645L1.06501 248.727H1.06501L3.06333 248.645ZM2.06417 248.686H4.06417V248.645L4.06249 248.604L2.06417 248.686ZM401.817 171.344V173.344H401.859L401.902 173.343L401.817 171.344ZM401.838 171.344L401.753 169.345H401.753L401.838 171.344ZM401.795 170.344V172.344H401.838L401.88 172.343L401.795 170.344ZM153.235 128.108V130.108H155.235V128.108H153.235ZM153.235 98.4326H155.235V96.4326H153.235V98.4326ZM137.588 128.108V126.108H135.588V128.108H137.588ZM137.588 161V163H139.588V161H137.588ZM99.7158 161H97.7158V163H99.7158V161ZM99.7158 128.108H101.716V126.108H99.7158V128.108ZM39.773 128.108L37.7824 128.302L37.9578 130.108H39.773V128.108ZM37.5237 104.94L35.8252 103.884L35.4676 104.459L35.5331 105.134L37.5237 104.94ZM99.7158 4.90134L101.414 5.95728L101.716 5.47235V4.90134H99.7158ZM99.7158 4.01562V2.01562H97.7158V4.01562H99.7158ZM137.588 4.01562H139.588V2.01562H137.588V4.01562ZM137.588 98.4326H135.588V100.433H137.588V98.4326ZM152.235 99.4326H154.235V97.4326H152.235V99.4326ZM136.588 99.4326H134.588V101.433H136.588V99.4326ZM152.235 127.108V129.108H154.235V127.108H152.235ZM136.588 127.108V125.108H134.588V127.108H136.588ZM136.588 160V162H138.588V160H136.588ZM100.716 160H98.7158V162H100.716V160ZM100.716 127.108H102.716V125.108H100.716V127.108ZM40.6807 127.108L38.69 127.302L38.8654 129.108H40.6807V127.108ZM38.5518 105.181L36.8532 104.125L36.4957 104.7L36.5611 105.374L38.5518 105.181ZM100.716 5.18685L102.414 6.24279L102.716 5.75785V5.18685H100.716ZM100.716 5.01562V3.01562H98.7158V5.01562H100.716ZM136.588 5.01562H138.588V3.01562H136.588V5.01562ZM72.8271 99.4326L71.0969 98.4296L69.356 101.433H72.8271V99.4326ZM100.716 99.4326V101.433H102.716V99.4326H100.716ZM98.374 55.3643L96.6674 54.3215L96.6553 54.3412L96.6437 54.3612L98.374 55.3643ZM100.716 51.5315H102.716V44.4221L99.0092 50.4887L100.716 51.5315ZM99.7158 55.0862H101.716V47.9769L98.0092 54.0434L99.7158 55.0862ZM99.7158 98.4326V100.433H101.716V98.4326H99.7158ZM99.2335 55.8756L97.5268 54.8328L97.5148 54.8525L97.5032 54.8725L99.2335 55.8756ZM74.5627 98.4326L72.8325 97.4296L71.0916 100.433H74.5627V98.4326ZM606.235 263.433H608.235V261.433H606.235V263.433ZM606.235 293.108V295.108H608.235V293.108H606.235ZM590.588 263.433H588.588V265.433H590.588V263.433ZM590.588 169.016H592.588V167.016H590.588V169.016ZM552.716 169.016V167.016H550.716V169.016H552.716ZM552.716 169.901L554.414 170.957L554.716 170.472V169.901H552.716ZM490.524 269.94L488.825 268.884L488.468 269.459L488.533 270.134L490.524 269.94ZM492.773 293.108L490.782 293.302L490.958 295.108H492.773V293.108ZM552.716 293.108H554.716V291.108H552.716V293.108ZM552.716 326H550.716V328H552.716V326ZM590.588 326V328H592.588V326H590.588ZM590.588 293.108V291.108H588.588V293.108H590.588ZM589.588 264.433H587.588V266.433H589.588V264.433ZM605.235 264.433H607.235V262.433H605.235V264.433ZM589.588 170.016H591.588V168.016H589.588V170.016ZM553.716 170.016V168.016H551.716V170.016H553.716ZM553.716 170.187L555.414 171.243L555.716 170.758V170.187H553.716ZM491.552 270.181L489.853 269.125L489.496 269.7L489.561 270.374L491.552 270.181ZM493.681 292.108L491.69 292.302L491.865 294.108H493.681V292.108ZM553.716 292.108H555.716V290.108H553.716V292.108ZM553.716 325H551.716V327H553.716V325ZM589.588 325V327H591.588V325H589.588ZM589.588 292.108V290.108H587.588V292.108H589.588ZM605.235 292.108V294.108H607.235V292.108H605.235ZM553.716 264.433V266.433H555.716V264.433H553.716ZM525.827 264.433L524.097 263.43L522.356 266.433H525.827V264.433ZM553.716 216.531H555.716V209.422L552.009 215.489L553.716 216.531ZM551.374 220.364L549.667 219.322L549.655 219.341L549.644 219.361L551.374 220.364ZM552.716 263.433V265.433H554.716V263.433H552.716ZM552.716 220.086H554.716V212.977L551.009 219.043L552.716 220.086ZM527.563 263.433L525.832 262.43L524.092 265.433H527.563V263.433ZM552.233 220.876L550.527 219.833L550.515 219.853L550.503 219.873L552.233 220.876ZM246.091 159.87C289.907 159.87 324.591 124.858 324.591 80.6655H320.591C320.591 122.683 287.664 155.87 246.091 155.87V159.87ZM167.591 80.6655C167.591 124.858 202.274 159.87 246.091 159.87V155.87C204.517 155.87 171.591 122.683 171.591 80.6655H167.591ZM246.091 1.46094C202.274 1.46094 167.591 36.4726 167.591 80.6655H171.591C171.591 38.6477 204.517 5.46094 246.091 5.46094V1.46094ZM324.591 80.6655C324.591 36.4726 289.907 1.46094 246.091 1.46094V5.46094C287.664 5.46094 320.591 38.6477 320.591 80.6655H324.591ZM246.091 160.87C290.468 160.87 325.591 125.402 325.591 80.6655H321.591C321.591 123.227 288.225 156.87 246.091 156.87V160.87ZM166.591 80.6655C166.591 125.402 201.713 160.87 246.091 160.87V156.87C203.957 156.87 170.591 123.227 170.591 80.6655H166.591ZM246.091 0.460938C201.713 0.460938 166.591 35.929 166.591 80.6655H170.591C170.591 38.1039 203.957 4.46094 246.091 4.46094V0.460938ZM325.591 80.6655C325.591 35.929 290.468 0.460938 246.091 0.460938V4.46094C288.225 4.46094 321.591 38.1039 321.591 80.6655H325.591ZM1.06417 248.666V248.686H5.06417V248.666H1.06417ZM1.06501 248.727L1.06585 248.748L5.06249 248.584L5.06165 248.563L1.06501 248.727ZM78.8275 167.87C35.4233 167.87 -0.743828 204.614 1.06501 248.727L5.06165 248.563C3.3474 206.757 37.6613 171.87 78.8275 171.87V167.87ZM156.591 248.686C156.591 204.628 120.469 167.87 78.8275 167.87V171.87C118.141 171.87 152.591 206.717 152.591 248.686H156.591ZM78.8275 327.688C122.239 327.688 156.591 292.759 156.591 248.686H152.591C152.591 290.611 119.97 323.688 78.8275 323.688V327.688ZM1.06417 248.686C1.06417 292.759 35.4157 327.688 78.8275 327.688V323.688C37.6847 323.688 5.06417 290.611 5.06417 248.686H1.06417ZM0.0641726 248.686C0.0641726 293.296 34.8482 328.688 78.8275 328.688V324.688C37.1175 324.688 4.06417 291.148 4.06417 248.686H0.0641726ZM78.8275 166.87C34.864 166.87 -1.76664 204.079 0.0658519 248.768L4.06249 248.604C2.3246 206.222 37.1018 170.87 78.8275 170.87V166.87ZM157.591 248.686C157.591 204.106 121.051 166.87 78.8275 166.87V170.87C118.723 170.87 153.591 206.194 153.591 248.686H157.591ZM78.8275 328.688C122.807 328.688 157.591 293.296 157.591 248.686H153.591C153.591 291.148 120.538 324.688 78.8275 324.688V328.688ZM240.091 327.688C283.905 327.688 318.591 292.768 318.591 248.686H314.591C314.591 290.584 281.672 323.688 240.091 323.688V327.688ZM161.591 248.686C161.591 292.768 196.277 327.688 240.091 327.688V323.688C198.51 323.688 165.591 290.584 165.591 248.686H161.591ZM240.091 167.87C196.247 167.87 161.591 204.634 161.591 248.686H165.591C165.591 206.698 198.599 171.87 240.091 171.87V167.87ZM318.591 248.686C318.591 204.634 283.934 167.87 240.091 167.87V171.87C281.583 171.87 314.591 206.698 314.591 248.686H318.591ZM240.091 328.688C284.463 328.688 319.591 293.315 319.591 248.686H315.591C315.591 291.13 282.23 324.688 240.091 324.688V328.688ZM160.591 248.686C160.591 293.315 195.718 328.688 240.091 328.688V324.688C197.952 324.688 164.591 291.13 164.591 248.686H160.591ZM240.091 166.87C195.659 166.87 160.591 204.118 160.591 248.686H164.591C164.591 206.182 198.011 170.87 240.091 170.87V166.87ZM319.591 248.686C319.591 204.118 284.523 166.87 240.091 166.87V170.87C282.171 170.87 315.591 206.182 315.591 248.686H319.591ZM401.795 173.344H401.817V169.344H401.795V173.344ZM328 248.516C328 206.492 360.64 173.344 401.795 173.344V169.344C358.364 169.344 324 204.35 324 248.516H328ZM401.795 323.688C360.64 323.688 328 290.541 328 248.516H324C324 292.683 358.364 327.688 401.795 327.688V323.688ZM475.591 248.516C475.591 290.541 442.951 323.688 401.795 323.688V327.688C445.227 327.688 479.591 292.683 479.591 248.516H475.591ZM401.923 173.342C442.865 171.605 475.591 206.369 475.591 248.516H479.591C479.591 204.391 445.255 167.5 401.753 169.345L401.923 173.342ZM401.902 173.343L401.923 173.342L401.753 169.345L401.732 169.346L401.902 173.343ZM327 248.516C327 205.956 360.071 172.344 401.795 172.344V168.344C357.795 168.344 323 203.815 323 248.516H327ZM401.795 324.688C360.071 324.688 327 291.076 327 248.516H323C323 293.218 357.795 328.688 401.795 328.688V324.688ZM476.591 248.516C476.591 291.076 443.52 324.688 401.795 324.688V328.688C445.796 328.688 480.591 293.218 480.591 248.516H476.591ZM401.88 172.343C443.462 170.579 476.591 205.874 476.591 248.516H480.591C480.591 203.897 445.854 166.474 401.711 168.346L401.88 172.343ZM481.591 80.6655C481.591 122.709 448.95 155.87 407.795 155.87V159.87C451.227 159.87 485.591 124.85 485.591 80.6655H481.591ZM407.795 5.46094C448.95 5.46094 481.591 38.6218 481.591 80.6655H485.591C485.591 36.4812 451.227 1.46094 407.795 1.46094V5.46094ZM334 80.6655C334 38.6218 366.641 5.46094 407.795 5.46094V1.46094C364.364 1.46094 330 36.4812 330 80.6655H334ZM407.795 155.87C366.641 155.87 334 122.709 334 80.6655H330C330 124.85 364.364 159.87 407.795 159.87V155.87ZM482.591 80.6655C482.591 123.244 449.519 156.87 407.795 156.87V160.87C451.797 160.87 486.591 125.385 486.591 80.6655H482.591ZM407.795 4.46094C449.519 4.46094 482.591 38.0866 482.591 80.6655H486.591C486.591 35.9463 451.797 0.460938 407.795 0.460938V4.46094ZM333 80.6655C333 38.0866 366.072 4.46094 407.795 4.46094V0.460938C363.794 0.460938 329 35.9463 329 80.6655H333ZM407.795 156.87C366.072 156.87 333 123.244 333 80.6655H329C329 125.385 363.794 160.87 407.795 160.87V156.87ZM568.205 159.87C611.636 159.87 646 124.85 646 80.6655H642C642 122.709 609.359 155.87 568.205 155.87V159.87ZM490.409 80.6655C490.409 124.85 524.773 159.87 568.205 159.87V155.87C527.05 155.87 494.409 122.709 494.409 80.6655H490.409ZM568.205 1.46094C524.773 1.46094 490.409 36.4812 490.409 80.6655H494.409C494.409 38.6218 527.05 5.46094 568.205 5.46094V1.46094ZM646 80.6655C646 36.4662 609.835 1.46094 568.205 1.46094V5.46094C607.618 5.46094 642 38.6671 642 80.6655H646ZM568.205 160.87C612.206 160.87 647 125.385 647 80.6655H643C643 123.244 609.928 156.87 568.205 156.87V160.87ZM489.409 80.6655C489.409 125.385 524.203 160.87 568.205 160.87V156.87C526.481 156.87 493.409 123.244 493.409 80.6655H489.409ZM568.205 0.460938C524.203 0.460938 489.409 35.9463 489.409 80.6655H493.409C493.409 38.0866 526.481 4.46094 568.205 4.46094V0.460938ZM647 80.6655C647 35.916 610.39 0.460938 568.205 0.460938V4.46094C608.172 4.46094 643 38.1169 643 80.6655H647ZM155.235 128.108V98.4326H151.235V128.108H155.235ZM137.588 130.108H153.235V126.108H137.588V130.108ZM139.588 161V128.108H135.588V161H139.588ZM99.7158 163H137.588V159H99.7158V163ZM97.7158 128.108V161H101.716V128.108H97.7158ZM39.773 130.108H99.7158V126.108H39.773V130.108ZM35.5331 105.134L37.7824 128.302L41.7637 127.915L39.5144 104.747L35.5331 105.134ZM98.0173 3.8454L35.8252 103.884L39.2222 105.996L101.414 5.95728L98.0173 3.8454ZM97.7158 4.01562V4.90134H101.716V4.01562H97.7158ZM137.588 2.01562H99.7158V6.01562H137.588V2.01562ZM139.588 98.4326V4.01562H135.588V98.4326H139.588ZM153.235 96.4326H137.588V100.433H153.235V96.4326ZM152.235 97.4326H136.588V101.433H152.235V97.4326ZM154.235 127.108V99.4326H150.235V127.108H154.235ZM136.588 129.108H152.235V125.108H136.588V129.108ZM138.588 160V127.108H134.588V160H138.588ZM100.716 162H136.588V158H100.716V162ZM98.7158 127.108V160H102.716V127.108H98.7158ZM40.6807 129.108H100.716V125.108H40.6807V129.108ZM36.5611 105.374L38.69 127.302L42.6713 126.915L40.5424 104.987L36.5611 105.374ZM99.0173 4.13091L36.8532 104.125L40.2503 106.237L102.414 6.24279L99.0173 4.13091ZM98.7158 5.01562V5.18685H102.716V5.01562H98.7158ZM136.588 3.01562H100.716V7.01562H136.588V3.01562ZM138.588 99.4326V5.01562H134.588V99.4326H138.588ZM72.8271 101.433H100.716V97.4326H72.8271V101.433ZM96.6437 54.3612L71.0969 98.4296L74.5574 100.436L100.104 56.3673L96.6437 54.3612ZM99.0092 50.4887L96.6674 54.3215L100.081 56.407L102.422 52.5742L99.0092 50.4887ZM102.716 99.4326V51.5315H98.7158V99.4326H102.716ZM97.7158 55.0862V98.4326H101.716V55.0862H97.7158ZM100.94 56.9184L101.422 56.1289L98.0092 54.0434L97.5268 54.8328L100.94 56.9184ZM76.293 99.4357L100.964 56.8787L97.5032 54.8725L72.8325 97.4296L76.293 99.4357ZM99.7158 96.4326H74.5627V100.433H99.7158V96.4326ZM604.235 263.433V293.108H608.235V263.433H604.235ZM590.588 265.433H606.235V261.433H590.588V265.433ZM588.588 169.016V263.433H592.588V169.016H588.588ZM552.716 171.016H590.588V167.016H552.716V171.016ZM554.716 169.901V169.016H550.716V169.901H554.716ZM492.222 270.996L554.414 170.957L551.017 168.845L488.825 268.884L492.222 270.996ZM494.764 292.915L492.514 269.747L488.533 270.134L490.782 293.302L494.764 292.915ZM552.716 291.108H492.773V295.108H552.716V291.108ZM554.716 326V293.108H550.716V326H554.716ZM590.588 324H552.716V328H590.588V324ZM588.588 293.108V326H592.588V293.108H588.588ZM606.235 291.108H590.588V295.108H606.235V291.108ZM589.588 266.433H605.235V262.433H589.588V266.433ZM587.588 170.016V264.433H591.588V170.016H587.588ZM553.716 172.016H589.588V168.016H553.716V172.016ZM555.716 170.187V170.016H551.716V170.187H555.716ZM493.25 271.237L555.414 171.243L552.017 169.131L489.853 269.125L493.25 271.237ZM495.671 291.915L493.542 269.987L489.561 270.374L491.69 292.302L495.671 291.915ZM553.716 290.108H493.681V294.108H553.716V290.108ZM555.716 325V292.108H551.716V325H555.716ZM589.588 323H553.716V327H589.588V323ZM587.588 292.108V325H591.588V292.108H587.588ZM605.235 290.108H589.588V294.108H605.235V290.108ZM603.235 264.433V292.108H607.235V264.433H603.235ZM553.716 262.433H525.827V266.433H553.716V262.433ZM551.716 216.531V264.433H555.716V216.531H551.716ZM553.081 221.407L555.422 217.574L552.009 215.489L549.667 219.322L553.081 221.407ZM527.557 265.436L553.104 221.367L549.644 219.361L524.097 263.43L527.557 265.436ZM554.716 263.433V220.086H550.716V263.433H554.716ZM527.563 265.433H552.716V261.433H527.563V265.433ZM550.503 219.873L525.832 262.43L529.293 264.436L553.964 221.879L550.503 219.873ZM551.009 219.043L550.527 219.833L553.94 221.918L554.422 221.129L551.009 219.043Z" fill="#A1CDEC" mask="url(#path-1-outside-1_1270_32957)"/>
</svg>
