<svg width="87" height="32" viewBox="0 0 87 32" fill="none" xmlns="http://www.w3.org/2000/svg">
<path d="M14.5711 0.461747C13.9912 -0.267843 12.7999 -0.104909 12.4371 0.753626C11.7245 2.44017 16.3304 11.9979 14.3346 14.6262C12.3387 17.2545 1.8954 15.3841 0.461946 16.5236C-0.267801 17.1037 -0.105051 18.2952 0.753502 18.6581C2.43998 19.3708 11.998 14.7644 14.6264 16.7602C17.2547 18.756 15.3843 29.1994 16.5238 30.6328C17.1039 31.3626 18.2954 31.1998 18.6583 30.3412C19.371 28.6547 14.7646 19.0967 16.7605 16.4683C18.7563 13.84 29.1998 15.7103 30.633 14.571C31.3626 13.991 31.1997 12.7997 30.3411 12.4369C28.6546 11.7243 19.0968 16.3302 16.4685 14.3343C13.8402 12.3384 15.7105 1.89498 14.5711 0.461746L14.5711 0.461747Z" fill="#F20036"/>
<path d="M49.9943 10.6955H41.4638V16.3971H49.5518V17.8551H41.4638V24.0426H49.9943V25.5297H39.8679V9.20847H49.9943V10.6955ZM62.6015 25.5297H60.7735L57.2989 20.7784L53.8896 25.5297H52.0834L56.3487 19.6831L52.1269 13.8437H53.9621L57.3642 18.6458L60.7518 13.8437H62.558L58.3362 19.7121L62.6015 25.5297ZM70.0004 15.2364H67.244V22.0261C67.244 22.8482 67.4326 23.4043 67.8098 23.6944C68.187 23.9894 68.6536 24.1369 69.2098 24.1369H70.0004V25.5297H68.9776C67.9137 25.5297 67.0989 25.254 66.5331 24.7027C65.9673 24.1563 65.6844 23.2882 65.6844 22.0986V15.2364H63.646V13.8437H65.6844V10.7391H67.244V13.8437H70.0004V15.2364ZM80.6853 13.8437H82.3537L75.818 29.9545H74.1496L76.0066 25.3628L71.2989 13.8437H72.9672L76.8408 23.5131L80.6853 13.8437ZM86.133 8.67896V25.5297H84.5807V8.67896H86.133Z" fill="white" stroke="white" stroke-width="0.5"/>
</svg>
