<svg width="139" height="28" viewBox="0 0 139 28" fill="none" xmlns="http://www.w3.org/2000/svg">
<path fill-rule="evenodd" clip-rule="evenodd" d="M124.627 9.40242C124.477 12.0674 126.214 14.7324 128.969 14.7324C132.233 14.7324 133.61 12.2471 133.76 9.85158C133.969 6.91707 132.203 4.37182 129.178 4.37182C126.094 4.37182 124.777 6.91707 124.627 9.40242ZM133.91 0.509052H139V18.4754C139 22.3382 137.922 27.0993 128.879 27.0993C124.866 27.0993 120.465 24.7936 120.255 20.9309L125.885 20.6314C126.184 22.1885 127.442 22.8473 129.448 22.8473C132.173 22.8473 133.58 21.41 133.76 18.6851L133.7 16.6489C133.7 16.6489 132.352 18.9246 128.011 18.9246C122.261 18.9246 119.447 14.7624 119.447 9.49225C119.447 4.52155 122.71 0 127.861 0C132.652 0 133.91 2.63508 133.91 2.63508V0.509052ZM59.5287 21.3501C55.067 21.3501 50.4856 18.9246 50.4856 14.3432V14.3132H55.2766C55.3066 16.6189 57.4625 17.5472 59.5586 17.5472C60.4569 17.5472 63.092 17.0681 63.092 15.2115C63.092 13.512 61.762 13.2811 57.5291 12.5463L57.0134 12.4567C53.9292 11.9177 50.9946 10.4804 50.9946 7.06677C50.9946 2.27574 55.1569 0.479097 59.2891 0.479097C63.5112 0.479097 67.3441 2.27573 67.7633 7.03683H63.0321C63.0321 4.97069 61.0858 4.16221 59.1993 4.16221C57.5224 4.16221 55.8156 4.76109 55.8156 6.31817C55.8156 7.73496 57.8123 8.05523 60.0633 8.41631C60.8571 8.54364 61.6825 8.67605 62.4632 8.86341C65.9068 9.70185 68.3023 11.0194 68.3023 14.6127C68.3023 19.7031 63.122 21.3501 59.5287 21.3501ZM69.1407 20.3619H74.4408V9.28262C74.4408 5.95884 76.7465 5.1803 77.7646 5.1803C80.6691 5.1803 80.8787 7.51593 80.8787 9.6719V20.3619H86.1788V9.28262C86.1788 5.92889 88.0952 5.12041 89.4727 5.12041C92.527 5.12041 92.6168 7.48599 92.6168 9.6719V20.3619H97.9169V7.57582C97.9169 2.57517 95.0722 0.658753 91.0597 0.658753C88.4546 0.658753 86.4783 2.1859 85.4003 3.86276C84.3822 1.55708 82.2861 0.658753 79.9205 0.658753C77.4951 0.658753 75.5188 1.82657 74.2012 3.80287H74.1413V1.19774H69.1107V20.3619H69.1407ZM108.547 4.31193C105.253 4.31193 104.325 7.45605 104.325 8.17471H112.769C112.769 7.27639 111.691 4.31193 108.547 4.31193ZM108.517 0.179657C115.494 0.179657 118.758 6.1984 118.369 11.9477H104.175C104.175 14.1935 105.792 16.5291 108.816 16.5291C111.062 16.5291 112.5 14.8522 112.649 14.1336L118.129 14.3731C116.602 18.9246 113.188 20.7512 108.727 20.7512C102.498 20.7512 98.7553 16.05 98.7553 10.5403C98.7553 5.15036 102.408 0.179657 108.517 0.179657ZM37.1907 6.6519C37.8169 3.83217 40.3306 1.70679 43.3589 1.70679C46.8324 1.70679 49.6771 4.52153 49.6771 8.02498C49.6771 11.5284 46.8623 14.3432 43.3589 14.3432C40.3567 14.3173 37.8243 12.2111 37.1923 9.39729C36.6669 11.7925 34.7928 13.6676 32.3982 14.1944C35.2164 14.8218 37.3402 17.3347 37.3402 20.3619C37.3402 23.8354 34.5254 26.6801 31.022 26.6801C28.0164 26.6801 25.4816 24.5725 24.8532 21.7349C24.2271 24.5547 21.7134 26.6801 18.6851 26.6801C15.6299 26.6801 13.0985 24.5396 12.5007 21.6686C11.8995 24.5213 9.37019 26.6801 6.31818 26.6801C2.81473 26.6801 0 23.8653 0 20.3619C0 16.8884 2.81473 14.0437 6.31818 14.0437C9.34827 14.0437 11.8998 16.1857 12.5019 19.0583C13.0105 16.6389 14.9058 14.7181 17.331 14.1889C14.4838 13.5542 12.3669 11.0373 12.3669 8.02498C12.3669 4.55147 15.1816 1.70679 18.6851 1.70679C21.6907 1.70679 24.2255 3.81431 24.8538 6.65191C25.48 3.83217 27.9937 1.70679 31.022 1.70679C34.0276 1.70679 36.5624 3.8143 37.1907 6.6519ZM29.6725 14.188C27.2828 13.6509 25.3876 11.775 24.8544 9.39279C24.3274 11.7756 22.4527 13.6635 20.0581 14.1937C22.4385 14.7223 24.324 16.596 24.8538 18.9888C25.3841 16.6007 27.2684 14.7106 29.6725 14.188Z" fill="white"/>
</svg>
