<svg width="16" height="16" viewBox="0 0 16 16" fill="none" xmlns="http://www.w3.org/2000/svg">
<path d="M11.3694 9.23126C11.2902 9.1867 11.2004 9.13617 11.0922 9.07107C11.0319 9.03461 10.9559 8.98476 10.8755 8.93198C10.4626 8.66098 10.1498 8.46917 9.88348 8.46917C9.8211 8.46917 9.7621 8.47973 9.70832 8.50048C9.47501 8.59032 9.28341 8.83036 9.09813 9.06245C9.03023 9.14748 8.93304 9.26923 8.87407 9.32364C8.64013 9.28111 8.14673 8.97545 7.61429 8.44301C7.08123 7.90995 6.77551 7.41598 6.73354 7.18261C6.78788 7.12342 6.91057 7.02551 6.99613 6.95717C7.22735 6.77257 7.46645 6.5817 7.55679 6.34911C7.67204 6.05026 7.46082 5.69286 7.12535 5.18179C7.07257 5.10136 7.0227 5.02539 6.98651 4.96548C6.92116 4.85689 6.87066 4.76704 6.8261 4.68786C6.6432 4.36279 6.52235 4.14795 6.06826 4.14795C5.77354 4.14795 5.35685 4.42645 5.0746 4.70264C4.66441 5.10411 4.43848 5.56761 4.43848 6.00867C4.43926 7.20661 5.10782 8.57961 6.27276 9.77698C6.27476 9.77898 6.27676 9.77951 6.27882 9.78151C7.4762 10.9465 8.84995 11.6128 10.0479 11.6128H10.0483C10.4888 11.6128 10.9524 11.3894 11.3539 10.9794C11.6303 10.6972 11.9092 10.2836 11.9092 9.98904C11.9092 9.53501 11.6945 9.4142 11.3694 9.23126ZM10.048 10.9939C9.0276 10.9931 7.78288 10.3747 6.71776 9.33964C5.68254 8.27439 5.06416 7.02957 5.06351 6.00929C5.06351 5.39214 5.86438 4.80536 6.07382 4.7732C6.1166 4.77339 6.13904 4.77592 6.14973 4.77773C6.17741 4.80961 6.23245 4.90742 6.28145 4.99451C6.32579 5.07332 6.38101 5.17145 6.45132 5.28829C6.49382 5.3587 6.54682 5.43942 6.60291 5.52486C6.70907 5.68661 6.92248 6.01173 6.95845 6.15051C6.89829 6.23567 6.71163 6.38467 6.60626 6.46879C6.33654 6.68414 6.1036 6.87007 6.1036 7.13286C6.10426 7.76761 6.92185 8.63448 7.17241 8.88504C7.42298 9.13561 8.28985 9.9532 8.92595 9.95382C9.18704 9.95298 9.3722 9.72101 9.58663 9.45242C9.6712 9.34651 9.8211 9.15873 9.9066 9.09889C10.0452 9.13461 10.3708 9.34826 10.5326 9.45454C10.6181 9.51061 10.6988 9.56357 10.7696 9.60636C10.886 9.67642 10.9841 9.73164 11.063 9.77598C11.15 9.82498 11.2479 9.88004 11.2798 9.90773C11.2816 9.91839 11.2841 9.94082 11.2843 9.98357C11.2519 10.1928 10.6649 10.9931 10.048 10.9939Z" fill="#D3D4D4"/>
<path d="M14.3868 8.0297C14.3649 6.34092 13.687 4.74511 12.4781 3.5362C11.2469 2.30502 9.62178 1.62695 7.90197 1.62695C6.24181 1.62695 4.68875 2.26577 3.52881 3.42567C2.4995 4.45498 1.868 5.8278 1.75053 7.29127C1.63912 8.67977 1.99259 10.0849 2.74737 11.2663L1.71669 14.0523C1.67344 14.1693 1.70381 14.3007 1.79403 14.3868C1.85331 14.4434 1.93097 14.4733 2.00984 14.4733C2.05097 14.4733 2.09247 14.4614 2.13181 14.4446L4.81615 13.3023C5.84091 13.9401 7.01266 14.2689 8.21584 14.2689H8.21597C9.87584 14.2689 11.4289 13.6377 12.5887 12.4779C13.7702 11.2964 14.4088 9.72152 14.3868 8.0297ZM12.1467 12.0435C11.1048 13.0854 9.70884 13.6591 8.21581 13.659C7.07916 13.659 5.97328 13.3263 5.01772 12.6969C4.9659 12.6628 4.90603 12.6454 4.84581 12.6454C4.80447 12.6454 4.76297 12.6536 4.72381 12.6702L2.55394 13.5905L3.38831 11.3352C3.42322 11.2408 3.41053 11.1353 3.35425 11.0519C1.82062 8.77989 2.0799 5.75845 3.97075 3.86764C5.01262 2.82577 6.40875 2.25195 7.90197 2.25195C9.45481 2.25195 10.923 2.86498 12.0362 3.97814C13.1292 5.07114 13.742 6.51289 13.7618 8.03783C13.7816 9.55964 13.208 10.9822 12.1467 12.0435Z" fill="#D3D4D4"/>
</svg>
