<svg width="12" height="12" viewBox="0 0 12 12" fill="none" xmlns="http://www.w3.org/2000/svg">
<path fill-rule="evenodd" clip-rule="evenodd" d="M0.25 1.5C0.25 1.22386 0.473858 1 0.75 1H1.625C1.85443 1 2.05443 1.15615 2.11007 1.37873L2.39039 2.5H11C11.154 2.5 11.2993 2.57094 11.3941 2.69229C11.4889 2.81365 11.5224 2.9719 11.4851 3.12127L10.2351 8.12127C10.1794 8.34385 9.97943 8.5 9.75 8.5H3.25C3.02057 8.5 2.82057 8.34385 2.76493 8.12127L1.23461 2H0.75C0.473858 2 0.25 1.77614 0.25 1.5ZM3.25 8.5C2.55964 8.5 2 9.05964 2 9.75C2 10.4404 2.55964 11 3.25 11C3.94036 11 4.5 10.4404 4.5 9.75C4.5 9.05964 3.94036 8.5 3.25 8.5ZM9.75 8.5C9.05964 8.5 8.5 9.05964 8.5 9.75C8.5 10.4404 9.05964 11 9.75 11C10.4404 11 11 10.4404 11 9.75C11 9.05964 10.4404 8.5 9.75 8.5ZM2.64039 3.5L3.64039 7.5H9.35961L10.3596 3.5H2.64039ZM6.5 4C6.77614 4 7 4.22386 7 4.5V5H7.5C7.77614 5 8 5.22386 8 5.5C8 5.77614 7.77614 6 7.5 6H7V6.5C7 6.77614 6.77614 7 6.5 7C6.22386 7 6 6.77614 6 6.5V6H5.5C5.22386 6 5 5.77614 5 5.5C5 5.22386 5.22386 5 5.5 5H6V4.5C6 4.22386 6.22386 4 6.5 4ZM3.25 9.5C3.11193 9.5 3 9.61193 3 9.75C3 9.88807 3.11193 10 3.25 10C3.38807 10 3.5 9.88807 3.5 9.75C3.5 9.61193 3.38807 9.5 3.25 9.5ZM9.75 9.5C9.61193 9.5 9.5 9.61193 9.5 9.75C9.5 9.88807 9.61193 10 9.75 10C9.88807 10 10 9.88807 10 9.75C10 9.61193 9.88807 9.5 9.75 9.5Z" fill="#E30614"/>
</svg>
