<svg width="20" height="20" viewBox="0 0 20 20" fill="none" xmlns="http://www.w3.org/2000/svg">
<path fill-rule="evenodd" clip-rule="evenodd" d="M1.66663 3.33329C1.66663 2.41282 2.41282 1.66663 3.33329 1.66663H7.49996C8.42043 1.66663 9.16663 2.41282 9.16663 3.33329V7.49996C9.16663 8.42043 8.42043 9.16663 7.49996 9.16663H3.33329C2.41282 9.16663 1.66663 8.42043 1.66663 7.49996V3.33329ZM7.49996 3.33329H3.33329V7.49996H7.49996V3.33329ZM10.8333 3.33329C10.8333 2.41282 11.5795 1.66663 12.5 1.66663H16.6666C17.5871 1.66663 18.3333 2.41282 18.3333 3.33329V7.49996C18.3333 8.42043 17.5871 9.16663 16.6666 9.16663H12.5C11.5795 9.16663 10.8333 8.42043 10.8333 7.49996V3.33329ZM16.6666 3.33329H12.5V7.49996H16.6666V3.33329ZM1.66663 12.5C1.66663 11.5795 2.41282 10.8333 3.33329 10.8333H7.49996C8.42043 10.8333 9.16663 11.5795 9.16663 12.5V16.6666C9.16663 17.5871 8.42043 18.3333 7.49996 18.3333H3.33329C2.41282 18.3333 1.66663 17.5871 1.66663 16.6666V12.5ZM7.49996 12.5H3.33329V16.6666H7.49996V12.5ZM10.8333 12.5C10.8333 11.5795 11.5795 10.8333 12.5 10.8333H16.6666C17.5871 10.8333 18.3333 11.5795 18.3333 12.5V16.6666C18.3333 17.5871 17.5871 18.3333 16.6666 18.3333H12.5C11.5795 18.3333 10.8333 17.5871 10.8333 16.6666V12.5ZM16.6666 12.5H12.5V16.6666H16.6666V12.5Z" fill="#E30614"/>
</svg>
