<svg width="20" height="20" viewBox="0 0 20 20" fill="none" xmlns="http://www.w3.org/2000/svg">
<path fill-rule="evenodd" clip-rule="evenodd" d="M2 9.28893C2 5.26338 5.26338 2 9.28893 2C13.3145 2 16.5779 5.26338 16.5779 9.28893C16.5779 11.0253 15.9707 12.6199 14.957 13.872L17.7753 16.6902C18.0749 16.9898 18.0749 17.4756 17.7753 17.7753C17.4756 18.0749 16.9898 18.0749 16.6902 17.7753L13.872 14.957C12.6199 15.9707 11.0253 16.5779 9.28893 16.5779C5.26338 16.5779 2 13.3145 2 9.28893ZM9.28893 3.53451C6.11087 3.53451 3.53451 6.11087 3.53451 9.28893C3.53451 12.467 6.11087 15.0433 9.28893 15.0433C12.467 15.0433 15.0433 12.467 15.0433 9.28893C15.0433 6.11087 12.467 3.53451 9.28893 3.53451Z" fill="#E30614"/>
</svg>
