<svg width="12" height="12" viewBox="0 0 12 12" fill="none" xmlns="http://www.w3.org/2000/svg">
<g clip-path="url(#clip0_206_1286)">
<path d="M11.765 0.983178C11.572 0.806295 11.2976 0.74735 11.0489 0.829311L0.497607 4.30746C0.210052 4.40224 0.0150522 4.65893 0.000825642 4.96134C-0.0133775 5.26378 0.156662 5.53765 0.434021 5.65903L3.04343 6.80072C3.05616 6.85978 3.80525 10.3341 3.83072 10.4522C3.86342 10.6039 3.94041 10.739 4.10351 10.7805C4.26849 10.8225 4.38504 10.7324 4.50814 10.6402C4.57664 10.5889 6.44454 9.19026 6.44454 9.19026L8.70835 11.0427C8.84021 11.1507 9.00136 11.207 9.16568 11.207C9.24392 11.207 9.3229 11.1942 9.39973 11.1682C9.63799 11.0874 9.81462 10.8929 9.87221 10.648L11.9808 1.68312C12.0407 1.42823 11.9581 1.16006 11.765 0.983178ZM4.67682 7.45493C4.67553 7.45798 4.67426 7.46142 4.67307 7.46555L4.23657 8.99058L3.74944 6.73132L7.09906 4.87026L4.75716 7.31897C4.72027 7.35755 4.69313 7.40419 4.67682 7.45493ZM4.81536 9.52973L5.01361 8.83704L5.20325 8.17448L5.88272 8.73052L4.81536 9.52973ZM11.2947 1.52172L9.18617 10.4866C9.18511 10.4911 9.18371 10.4972 9.17339 10.5007C9.16317 10.5042 9.15821 10.5002 9.15469 10.4973L6.67756 8.47024C6.67749 8.47019 6.67744 8.47012 6.67737 8.47008L5.52966 7.53089L9.21692 3.67547C9.33734 3.54954 9.34765 3.35451 9.24117 3.21658C9.13465 3.07863 8.94335 3.03923 8.79108 3.12389L3.33129 6.15738L0.716536 5.01333C0.708568 5.00986 0.704185 5.00791 0.704818 4.99444C0.70545 4.98101 0.709997 4.97948 0.718247 4.97676L11.2695 1.49864C11.2746 1.49697 11.2804 1.49505 11.2889 1.50279C11.2974 1.51057 11.296 1.51647 11.2947 1.52172Z" fill="#D3D4D4"/>
</g>
<defs>
<clipPath id="clip0_206_1286">
<rect width="12" height="12" fill="white"/>
</clipPath>
</defs>
</svg>
