<svg width="16" height="16" viewBox="0 0 16 16" fill="none" xmlns="http://www.w3.org/2000/svg">
<path fill-rule="evenodd" clip-rule="evenodd" d="M0.333008 1.99998C0.333008 1.63179 0.631485 1.33331 0.999674 1.33331H2.16634C2.47225 1.33331 2.73891 1.54151 2.8131 1.83829L3.18686 3.33331H14.6663C14.8716 3.33331 15.0655 3.42789 15.1918 3.5897C15.3181 3.75152 15.3629 3.96251 15.3131 4.16167L13.6464 10.8283C13.5722 11.1251 13.3056 11.3333 12.9997 11.3333H4.33301C4.0271 11.3333 3.76044 11.1251 3.68625 10.8283L1.64582 2.66665H0.999674C0.631485 2.66665 0.333008 2.36817 0.333008 1.99998ZM4.33301 11.3333C3.41253 11.3333 2.66634 12.0795 2.66634 13C2.66634 13.9205 3.41253 14.6666 4.33301 14.6666C5.25348 14.6666 5.99967 13.9205 5.99967 13C5.99967 12.0795 5.25348 11.3333 4.33301 11.3333ZM12.9997 11.3333C12.0792 11.3333 11.333 12.0795 11.333 13C11.333 13.9205 12.0792 14.6666 12.9997 14.6666C13.9201 14.6666 14.6663 13.9205 14.6663 13C14.6663 12.0795 13.9201 11.3333 12.9997 11.3333ZM3.52019 4.66665L4.85353 9.99998H12.4792L13.8125 4.66665H3.52019ZM8.66634 5.33331C9.03453 5.33331 9.33301 5.63179 9.33301 5.99998V6.66665H9.99967C10.3679 6.66665 10.6663 6.96512 10.6663 7.33331C10.6663 7.7015 10.3679 7.99998 9.99967 7.99998H9.33301V8.66665C9.33301 9.03484 9.03453 9.33331 8.66634 9.33331C8.29815 9.33331 7.99967 9.03484 7.99967 8.66665V7.99998H7.33301C6.96482 7.99998 6.66634 7.7015 6.66634 7.33331C6.66634 6.96512 6.96482 6.66665 7.33301 6.66665H7.99967V5.99998C7.99967 5.63179 8.29815 5.33331 8.66634 5.33331ZM4.33301 12.6666C4.14891 12.6666 3.99967 12.8159 3.99967 13C3.99967 13.1841 4.14891 13.3333 4.33301 13.3333C4.5171 13.3333 4.66634 13.1841 4.66634 13C4.66634 12.8159 4.5171 12.6666 4.33301 12.6666ZM12.9997 12.6666C12.8156 12.6666 12.6663 12.8159 12.6663 13C12.6663 13.1841 12.8156 13.3333 12.9997 13.3333C13.1838 13.3333 13.333 13.1841 13.333 13C13.333 12.8159 13.1838 12.6666 12.9997 12.6666Z" fill="white"/>
</svg>
