<svg width="15" height="15" viewBox="0 0 15 15" fill="none" xmlns="http://www.w3.org/2000/svg">
<g clip-path="url(#clip0_206_1291)">
<path d="M14.0622 11.8847H12.1872C11.8987 11.8854 11.6261 11.7526 11.4487 11.5252L9.62058 9.19312C9.53852 9.08829 9.39913 9.04686 9.27312 9.09012C9.14723 9.13326 9.06242 9.25137 9.06197 9.38447V10.322C9.06197 11.1854 8.22204 11.8847 7.18688 11.8847C6.78219 11.8883 6.38495 11.7758 6.0423 11.5604C3.41713 9.8806 1.63577 7.75945 0.0889102 4.47026C-0.0473955 4.18002 -0.0258795 3.84023 0.145904 3.56945C0.317689 3.29867 0.615936 3.13456 0.936615 3.13421H2.8117C3.18686 3.1333 3.52642 3.35613 3.67497 3.70061L3.8859 4.19284C4.20463 4.93228 4.63255 5.61976 5.15557 6.23205C5.17262 6.25036 5.19688 6.26043 5.22195 6.2594C5.24495 6.26158 5.26795 6.25391 5.28501 6.23823C5.30217 6.22266 5.3119 6.20046 5.31179 6.17734V4.9546C4.88284 4.80135 4.62625 4.36199 4.70327 3.91314C4.7803 3.46428 5.16884 3.1357 5.62434 3.13421H8.12442C8.64218 3.13421 9.06197 3.554 9.06197 4.07176V6.2594C9.06219 6.39891 9.1549 6.52137 9.28914 6.55948C9.42339 6.59759 9.56656 6.54208 9.64015 6.4234L11.3863 3.58342C11.5555 3.30314 11.8597 3.1325 12.1872 3.13421H14.0622C14.4087 3.13433 14.7267 3.32557 14.8895 3.63137C15.0522 3.93717 15.033 4.30786 14.8396 4.59524L12.8707 7.32581C12.7912 7.43534 12.7912 7.58355 12.8707 7.69307L14.824 10.4002C15.0291 10.6858 15.0571 11.0623 14.8966 11.3752C14.736 11.688 14.4138 11.8847 14.0622 11.8847ZM9.37452 8.44693C9.66292 8.44636 9.93542 8.579 10.1128 8.80641L11.941 11.1385C12 11.2146 12.0908 11.2593 12.1872 11.2596H14.0622C14.1799 11.26 14.2878 11.1942 14.3414 11.0895C14.3951 10.9847 14.3852 10.8588 14.3161 10.7634L12.3629 8.05632C12.1263 7.72866 12.1263 7.28633 12.3629 6.95867L14.3279 4.23587C14.3588 4.18666 14.375 4.12978 14.3747 4.07176C14.3747 3.89917 14.2348 3.75921 14.0622 3.75921H12.1872C12.0788 3.75932 11.9783 3.81551 11.9215 3.90764L10.1753 6.74763C9.95671 7.10676 9.5257 7.27649 9.12091 7.16273C8.71611 7.04908 8.43663 6.67976 8.43697 6.2594V4.07176C8.43697 3.89917 8.29701 3.75921 8.12442 3.75921H5.62434C5.45164 3.75921 5.31179 3.89917 5.31179 4.07176C5.31179 4.24434 5.45164 4.38431 5.62434 4.38431H5.93678V6.17734C5.93323 6.47387 5.74703 6.73744 5.46858 6.83987C5.19024 6.94219 4.87758 6.86196 4.68279 6.63833C4.11983 5.97901 3.65884 5.239 3.31561 4.44291L3.10068 3.95067C3.05181 3.8344 2.93782 3.75886 2.8117 3.75921H0.936615C0.829951 3.75978 0.730954 3.81471 0.67396 3.9049C0.616966 3.99508 0.609985 4.10804 0.655305 4.20463C2.16714 7.41954 3.8273 9.40015 6.38209 11.037C6.62414 11.1852 6.90305 11.2624 7.18688 11.2596C7.87436 11.2596 8.43697 10.8377 8.43697 10.322V9.38447C8.43697 8.86672 8.85665 8.44693 9.37452 8.44693Z" fill="#E6E6E6"/>
</g>
<defs>
<clipPath id="clip0_206_1291">
<rect width="15" height="15" fill="white"/>
</clipPath>
</defs>
</svg>
