<svg width="23" height="23" viewBox="0 0 23 23" fill="none" xmlns="http://www.w3.org/2000/svg">
<g clip-path="url(#clip0_206_1297)">
<path d="M11.4992 3.13535C10.3455 3.13535 9.40723 4.07361 9.40723 5.2273C9.40723 6.38099 10.3455 7.31921 11.4992 7.31921C12.6529 7.31921 13.5911 6.38094 13.5911 5.2273C13.5911 4.07366 12.6528 3.13535 11.4992 3.13535ZM11.4992 6.27377C10.9223 6.27377 10.4527 5.80415 10.4527 5.2273C10.4527 4.65046 10.9223 4.18083 11.4992 4.18083C12.076 4.18083 12.5457 4.65046 12.5457 5.2273C12.5457 5.80415 12.076 6.27377 11.4992 6.27377Z" fill="#C2C2C2"/>
<path d="M22.4773 9.40918C22.7662 9.40918 23 9.17679 23 8.88791V6.79722C23 6.61296 22.9031 6.44198 22.7443 6.34804L12.5189 0.275544C12.5143 0.272457 12.5097 0.269908 12.5051 0.26736C11.8696 -0.0848441 11.1529 -0.0955273 10.4806 0.274515L0.255761 6.34804C0.0969823 6.44193 0 6.61296 0 6.79722V8.88791C0 9.17679 0.233806 9.40918 0.522744 9.40918H2.09093V18.8187C0.937724 18.8187 0 19.7563 0 20.9094V22.4774C0 22.7663 0.233806 23.0001 0.522744 23.0001H22.4773C22.7662 23.0001 23 22.7664 23 22.4774V20.9094C23 19.7563 22.0623 18.8187 20.9091 18.8187V9.40918H22.4773ZM21.9546 20.9092V21.9546H1.04544V20.9092C1.04544 20.3329 1.51457 19.8638 2.09088 19.8638H2.61362H20.3864H20.9091C21.4854 19.8637 21.9546 20.3328 21.9546 20.9092ZM3.13637 18.8183V9.40918H5.22729V18.8183H3.13637ZM6.27273 18.8183V9.40918H9.4091V18.8183H6.27273ZM10.4545 18.8183V9.40918H12.5455V18.8183H10.4545ZM13.5909 18.8183V9.40918H16.7273V18.8183H13.5909ZM17.7728 18.8183V9.40918H19.8637V18.8183H17.7728ZM1.04544 8.36374V7.09317L10.9992 1.1798C11.3249 1.00063 11.671 1.00112 11.9926 1.17622L21.9546 7.09317V8.36374H1.04544Z" fill="#C2C2C2"/>
</g>
<defs>
<clipPath id="clip0_206_1297">
<rect width="23" height="23" fill="white"/>
</clipPath>
</defs>
</svg>
