<svg width="22" height="22" viewBox="0 0 22 22" fill="none" xmlns="http://www.w3.org/2000/svg">
<g id="long-arrow-left">
<path id="icon" fill-rule="evenodd" clip-rule="evenodd" d="M16.9583 10.0835H7.30583L10.6489 6.84582C11.0138 6.49382 11.022 5.91357 10.6709 5.54965C10.3171 5.18574 9.73775 5.17749 9.37475 5.52949L4.40458 10.342C4.22492 10.5143 4.125 10.7517 4.125 11.0002C4.125 11.2486 4.22492 11.486 4.40458 11.6583L9.37475 16.4708C9.55258 16.6432 9.78175 16.7293 10.0118 16.7293C10.2511 16.7293 10.4903 16.6358 10.6709 16.4507C11.022 16.0867 11.0138 15.5065 10.6489 15.1545L7.30583 11.9168H16.9583C17.4653 11.9168 17.875 11.5062 17.875 11.0002C17.875 10.4942 17.4653 10.0835 16.9583 10.0835Z" fill="white"/>
</g>
</svg>
