<svg width="53" height="53" viewBox="0 0 53 53" fill="none" xmlns="http://www.w3.org/2000/svg">
<path d="M45.1906 10.8978C45.6193 10.8978 45.9669 10.5503 45.9669 10.1214V8.19285H47.8367C48.2655 8.19285 48.6131 7.84535 48.6131 7.41648V0.776367C48.6131 0.347502 48.2655 0 47.8367 0H13.1531C12.1493 0 12.1493 1.55273 13.1531 1.55273H47.0605V6.64011H5.94043V1.55273H9.02106C10.0248 1.55273 10.0248 0 9.02106 0H5.16406C4.7353 0 4.3877 0.347502 4.3877 0.776367V7.41648C4.3877 7.84535 4.7353 8.19285 5.16406 8.19285H7.03387V10.1216C7.03387 10.5504 7.38147 10.8979 7.81023 10.8979H8.57728V18.5425H5.16406C4.7353 18.5425 4.3877 18.89 4.3877 19.3189V24.0053C4.3877 24.4341 4.7353 24.7816 5.16406 24.7816H8.57728V33.1968H7.81023C7.38147 33.1968 7.03387 33.5443 7.03387 33.9732V36.0102H5.16406C4.7353 36.0102 4.3877 36.3577 4.3877 36.7866V52.2236C4.3877 52.6525 4.7353 53 5.16406 53H32.9324C33.9362 53 33.9362 51.4473 32.9324 51.4473H13.9949V48.4714H39.0058V51.4473H37.0688C36.065 51.4473 36.065 53 37.0688 53H47.8367C48.2655 53 48.6131 52.6525 48.6131 52.2236V36.7865C48.6131 36.3576 48.2655 36.0101 47.8367 36.0101H45.9669V33.9731C45.9669 33.5442 45.6193 33.1967 45.1906 33.1967H44.4235V24.7815H47.8367C48.2655 24.7815 48.6131 24.434 48.6131 24.0052V19.3188C48.6131 18.8899 48.2655 18.5424 47.8367 18.5424H44.4235V10.8978H45.1906ZM44.4142 8.19285V9.34518C42.7105 9.34518 41.0069 9.34518 39.3032 9.34518V8.19285H44.4142ZM41.623 20.0952L44.5222 23.2288C43.6371 23.2288 42.7521 23.2287 41.8671 23.2287L38.968 20.0952H41.623ZM41.623 37.5628L44.5222 40.6964H41.8673L38.9681 37.5628H41.623ZM8.47853 40.6965L11.3777 37.5629H14.0327L11.1335 40.6965H8.47853ZM16.1481 37.5628H18.6769L15.7777 40.6964H13.2489L16.1481 37.5628ZM20.792 37.5628H23.7171L20.755 40.6964H17.8929L20.792 37.5628ZM22.8917 40.6964L25.8538 37.5629H27.199L30.161 40.6964H22.8917ZM32.2977 40.6965L29.3356 37.5629H32.2088L35.1079 40.6965H32.2977ZM34.324 37.5628H36.8528L39.752 40.6964H37.2232L34.324 37.5628ZM38.5268 33.1967C38.0981 33.1967 37.7505 33.5442 37.7505 33.9731V36.0101H15.2503V33.9731C15.2503 33.5442 14.9027 33.1967 14.474 33.1967H13.7069V24.7815H39.2939V33.1967H38.5268ZM8.47853 23.2288L11.3777 20.0952H14.0327L11.1336 23.2287C10.2486 23.2287 9.36359 23.2288 8.47853 23.2288ZM14.474 10.8978C14.9027 10.8978 15.2503 10.5503 15.2503 10.1214V8.19285H18.4135V10.1216C18.4135 10.5504 18.7612 10.8979 19.1899 10.8979H19.6275V12.8267C19.6275 13.2556 19.9751 13.6031 20.4038 13.6031H20.9314V18.5425H13.7069V10.8979H14.474V10.8978ZM35.1078 23.2288H32.2977L29.3356 20.0952H32.2088L35.1078 23.2288ZM34.324 20.0952H36.8528L39.752 23.2288H37.2232L34.324 20.0952ZM13.2489 23.2288L16.1481 20.0952H18.6769L15.7777 23.2288H13.2489ZM20.792 20.0952H23.7171L20.755 23.2288H17.8929L20.792 20.0952ZM22.8917 23.2287L25.8538 20.0952H27.199L30.161 23.2287H22.8917ZM30.5167 18.5424C27.8392 18.5424 25.1616 18.5424 22.484 18.5424V13.603H30.5167V18.5424ZM31.8207 12.0503C28.2738 12.0503 24.7271 12.0503 21.1802 12.0503V10.8978H31.8207V12.0503ZM32.0694 18.5424V13.603H32.5969C33.0257 13.603 33.3733 13.2555 33.3733 12.8266V10.8978H33.8109C34.2396 10.8978 34.5872 10.5503 34.5872 10.1214V8.19285H37.7505V10.1216C37.7505 10.5504 38.0981 10.8979 38.5268 10.8979H39.2939V18.5425H32.0694V18.5424ZM33.0345 8.19285V9.34518C28.6785 9.34518 24.3223 9.34518 19.9663 9.34518V8.19285H33.0345ZM13.6976 8.19285V9.34518C11.9939 9.34518 10.2903 9.34518 8.5866 9.34518V8.19285H13.6976ZM10.1299 10.8978H12.1541V18.5424C11.4793 18.5424 10.8046 18.5424 10.1299 18.5424V10.8978ZM5.94043 23.2288V20.0952H9.26245L6.36329 23.2288H5.94043ZM10.1299 24.7815H12.1541V33.1967H10.1299V24.7815ZM8.5866 34.7495H13.6976V36.0101H8.5866V34.7495ZM5.94043 37.5628H7.81023H9.26245L6.36329 40.6964H5.94043V37.5628ZM40.5587 51.4473V47.695C40.5587 47.2662 40.211 46.9187 39.7823 46.9187H13.2185C12.7898 46.9187 12.4421 47.2662 12.4421 47.695V51.4473H5.94033V42.2493H47.0603V51.4473H40.5587ZM47.0604 40.6965H46.6375L43.7383 37.5629H45.1906H47.0604V40.6965ZM39.3032 36.0101V34.7495H44.4142V36.0101H39.3032ZM42.8709 33.1967H40.8466V24.7815H42.8708V33.1967H42.8709ZM47.0604 23.2288H46.6375L43.7383 20.0952H47.0604V23.2288ZM42.8709 18.5424C42.1962 18.5424 41.5214 18.5424 40.8467 18.5424V10.8978H42.8709V18.5424Z" fill="black"/>
</svg>
