<svg width="32" height="32" viewBox="0 0 32 32" fill="none" xmlns="http://www.w3.org/2000/svg">
<rect width="32" height="32" rx="16" fill="black"/>
<path fill-rule="evenodd" clip-rule="evenodd" d="M24.9743 23.1067C26.4135 22.0637 27.3333 20.5207 27.3333 18.8065C27.3333 15.6641 24.2765 13.1171 20.506 13.1171C16.7354 13.1171 13.6789 15.6641 13.6789 18.8065C13.6789 21.9486 16.7354 24.4956 20.506 24.4956C21.2851 24.4956 22.0372 24.3844 22.7344 24.1838C22.7996 24.1639 22.8673 24.1539 22.9354 24.1539C23.0662 24.1539 23.1855 24.1937 23.2977 24.2589L24.7923 25.1216C24.8341 25.1457 24.8743 25.1641 24.9238 25.1641C24.9537 25.1641 24.9833 25.1582 25.011 25.1467C25.0386 25.1353 25.0637 25.1185 25.0848 25.0974C25.106 25.0762 25.1227 25.0511 25.1341 25.0234C25.1455 24.9958 25.1514 24.9662 25.1514 24.9363C25.1514 24.8803 25.129 24.8239 25.1148 24.7702C25.1061 24.7381 24.9218 24.0512 24.8072 23.6225C24.794 23.5745 24.7833 23.528 24.7833 23.4775C24.7832 23.405 24.8006 23.3334 24.8338 23.2689C24.867 23.2044 24.9152 23.1488 24.9743 23.1067ZM18.23 17.8963C17.7277 17.8963 17.3201 17.4888 17.3201 16.9859C17.3201 16.4831 17.7277 16.0755 18.23 16.0755C18.7331 16.0755 19.1404 16.4831 19.1404 16.9859C19.1404 17.4887 18.7331 17.8963 18.23 17.8963V17.8963ZM22.7816 17.8963C22.279 17.8963 21.8714 17.4887 21.8714 16.9859C21.8714 16.4831 22.279 16.0755 22.7816 16.0755C23.2845 16.0755 23.6918 16.4831 23.6918 16.9859C23.6918 17.4887 23.2845 17.8963 22.7816 17.8963ZM12.8593 6.83594C16.9466 6.83594 20.334 9.33021 20.9509 12.5917C20.8028 12.5841 20.6544 12.5801 20.506 12.5798C16.3794 12.5798 13.0341 15.3678 13.0341 18.8063C13.0341 19.3862 13.1313 19.9473 13.3094 20.4797C13.1602 20.4864 13.0104 20.4904 12.8593 20.4904C11.9245 20.4904 11.022 20.3566 10.1851 20.1161C10.1071 20.0922 10.0259 20.08 9.9442 20.08C9.787 20.08 9.64428 20.1281 9.50926 20.2059L7.71571 21.2415C7.66574 21.2703 7.617 21.2924 7.5578 21.2924C7.52194 21.2924 7.48642 21.2854 7.45328 21.2717C7.42014 21.2579 7.39003 21.2378 7.36467 21.2125C7.33931 21.1871 7.31919 21.157 7.30548 21.1239C7.29176 21.0907 7.28472 21.0552 7.28474 21.0193C7.28474 20.9517 7.31165 20.8843 7.3288 20.8197L7.69785 19.4427C7.71352 19.3848 7.72665 19.3291 7.72665 19.2686C7.72672 19.1815 7.70595 19.0957 7.66607 19.0182C7.62619 18.9408 7.56836 18.874 7.49742 18.8235C5.77005 17.5721 4.66663 15.7204 4.66663 13.6633C4.66663 9.89271 8.33446 6.83594 12.8593 6.83594ZM10.1282 12.5709C10.7318 12.5709 11.2207 12.0819 11.2207 11.4784C11.2207 10.8751 10.7318 10.3861 10.1282 10.3861C9.52517 10.3861 9.03601 10.8751 9.03601 11.4784C9.03601 12.0819 9.52511 12.5709 10.1282 12.5709ZM15.5903 12.5709C16.1936 12.5709 16.6828 12.0819 16.6828 11.4784C16.6828 10.8751 16.1937 10.3861 15.5903 10.3861C14.9867 10.3861 14.4979 10.8751 14.4979 11.4784C14.4979 12.0819 14.9867 12.5709 15.5903 12.5709Z" fill="white"/>
</svg>
