<svg width="24" height="24" viewBox="0 0 24 24" fill="none" xmlns="http://www.w3.org/2000/svg">
<path fill-rule="evenodd" clip-rule="evenodd" d="M17.4591 9.95476L10.999 16.4548C10.812 16.6428 10.557 16.7498 10.29 16.7498C10.023 16.7498 9.76905 16.6438 9.58105 16.4548L6.54105 13.3958C6.15105 13.0048 6.15305 12.3718 6.54505 11.9818C6.93705 11.5918 7.56905 11.5948 7.95905 11.9858L10.29 14.3308L16.041 8.54476C16.431 8.15376 17.0631 8.15076 17.4551 8.53976C17.8471 8.92976 17.8491 9.56276 17.4591 9.95476ZM12 1.99963C6.478 1.99963 2 6.47663 2 11.9996C2 17.5226 6.478 21.9996 12 21.9996C17.522 21.9996 22 17.5226 22 11.9996C22 6.47663 17.522 1.99963 12 1.99963Z" fill="black"/>
</svg>
