<svg width="24" height="24" viewBox="0 0 24 24" fill="none" xmlns="http://www.w3.org/2000/svg">
<path d="M12.5 21C13.3284 21 14 20.3284 14 19.5L14 4.5C14 3.67157 13.3284 3 12.5 3C11.6716 3 11 3.67157 11 4.5L11 19.5C11 20.3284 11.6716 21 12.5 21ZM5 19.5C5 20.3284 5.67157 21 6.5 21C7.32843 21 8 20.3284 8 19.5L8 8.5C8 7.67157 7.32843 7 6.5 7C5.67157 7 5 7.67157 5 8.5L5 19.5ZM18.5 21C19.3284 21 20 20.3284 20 19.5L20 12.5C20 11.6716 19.3284 11 18.5 11C17.6716 11 17 11.6716 17 12.5L17 19.5C17 20.3284 17.6716 21 18.5 21Z" fill="white"/>
</svg>
