<svg width="10" height="10" viewBox="0 0 10 10" fill="none" xmlns="http://www.w3.org/2000/svg">
<g opacity="0.5">
<path d="M1.25 2.5H2.08333H8.75" stroke="#E30614" stroke-linecap="round" stroke-linejoin="round"/>
<path d="M3.33398 2.49998V1.66665C3.33398 1.44563 3.42178 1.23367 3.57806 1.07739C3.73434 0.92111 3.9463 0.833313 4.16732 0.833313H5.83398C6.055 0.833313 6.26696 0.92111 6.42324 1.07739C6.57952 1.23367 6.66732 1.44563 6.66732 1.66665V2.49998M7.91732 2.49998V8.33331C7.91732 8.55433 7.82952 8.76629 7.67324 8.92257C7.51696 9.07885 7.305 9.16665 7.08398 9.16665H2.91732C2.6963 9.16665 2.48434 9.07885 2.32806 8.92257C2.17178 8.76629 2.08398 8.55433 2.08398 8.33331V2.49998H7.91732Z" stroke="#E30614" stroke-linecap="round" stroke-linejoin="round"/>
</g>
</svg>
