<svg width="200" height="200" fill="none" xmlns="http://www.w3.org/2000/svg">
  <path opacity=".2" fill="#fff" stroke="#000" d="M.5.5h199v199H.5z"/>
  <path opacity=".4" d="M59.286 120.678h1.53a3.93 3.93 0 0 1 1.478.273 3.517 3.517 0 0 1 1.994 1.943c.19.452.285.954.285 1.504s-.095 1.054-.285 1.511c-.19.457-.457.852-.8 1.187-.339.33-.736.586-1.194.768a4.007 4.007 0 0 1-1.479.266h-1.53a4.007 4.007 0 0 1-1.478-.266 3.683 3.683 0 0 1-1.194-.768 3.533 3.533 0 0 1-.793-1.175 3.964 3.964 0 0 1-.28-1.51c0-.55.094-1.052.28-1.505.19-.457.455-.85.793-1.18a3.62 3.62 0 0 1 1.194-.775 3.93 3.93 0 0 1 1.479-.273Zm0 .965c-.555 0-1.024.116-1.41.349-.385.229-.677.55-.875.965-.2.415-.299.899-.299 1.454 0 .419.055.797.165 1.136.114.338.282.628.502.87.22.241.49.427.812.558.322.131.69.197 1.105.197h1.542c.55 0 1.016-.114 1.397-.343a2.24 2.24 0 0 0 .876-.971c.203-.419.304-.906.304-1.46 0-.415-.057-.791-.171-1.13a2.433 2.433 0 0 0-.502-.87 2.154 2.154 0 0 0-.806-.558 2.86 2.86 0 0 0-1.098-.197h-1.542Zm1.358-2.266v10.004H59.47v-10.004h1.174Zm13.094 4.71v.584c0 .694-.087 1.316-.26 1.866a4.01 4.01 0 0 1-.75 1.403 3.247 3.247 0 0 1-1.174.882c-.453.203-.96.305-1.523.305a3.665 3.665 0 0 1-1.505-.305 3.381 3.381 0 0 1-1.18-.882 4.112 4.112 0 0 1-.768-1.403c-.182-.55-.273-1.172-.273-1.866v-.584c0-.694.089-1.314.266-1.86.182-.55.438-1.018.768-1.403a3.29 3.29 0 0 1 1.175-.888 3.648 3.648 0 0 1 1.504-.305c.563 0 1.07.101 1.523.305.458.203.849.499 1.175.888.33.385.582.853.755 1.403.178.546.267 1.166.267 1.86Zm-1.213.584v-.597c0-.55-.057-1.037-.171-1.46a3.027 3.027 0 0 0-.489-1.066 2.106 2.106 0 0 0-.793-.654 2.41 2.41 0 0 0-1.054-.222c-.38 0-.726.074-1.035.222a2.187 2.187 0 0 0-.787.654 3.198 3.198 0 0 0-.501 1.066 5.43 5.43 0 0 0-.178 1.46v.597c0 .554.06 1.045.178 1.473.118.423.288.78.508 1.072.224.288.488.506.793.654.309.148.654.222 1.035.222.397 0 .75-.074 1.06-.222.309-.148.569-.366.78-.654.216-.292.38-.649.49-1.072.11-.428.164-.919.164-1.473Zm6.785-4.913V129h-1.207v-9.242h1.207Zm2.97 0v1.003h-7.14v-1.003h7.14Zm8.81 4.329v.584c0 .694-.087 1.316-.26 1.866a4.011 4.011 0 0 1-.75 1.403 3.248 3.248 0 0 1-1.174.882c-.453.203-.96.305-1.524.305a3.665 3.665 0 0 1-1.504-.305 3.38 3.38 0 0 1-1.18-.882 4.112 4.112 0 0 1-.769-1.403c-.182-.55-.273-1.172-.273-1.866v-.584c0-.694.09-1.314.267-1.86a4.11 4.11 0 0 1 .768-1.403 3.29 3.29 0 0 1 1.174-.888 3.649 3.649 0 0 1 1.505-.305c.563 0 1.07.101 1.523.305a3.22 3.22 0 0 1 1.174.888c.33.385.582.853.756 1.403.178.546.266 1.166.266 1.86Zm-1.213.584v-.597c0-.55-.057-1.037-.171-1.46a3.03 3.03 0 0 0-.49-1.066 2.105 2.105 0 0 0-.793-.654 2.41 2.41 0 0 0-1.053-.222c-.381 0-.726.074-1.035.222a2.187 2.187 0 0 0-.787.654 3.196 3.196 0 0 0-.502 1.066 5.43 5.43 0 0 0-.177 1.46v.597c0 .554.059 1.045.177 1.473.119.423.288.78.508 1.072.224.288.489.506.794.654.309.148.653.222 1.034.222.398 0 .751-.074 1.06-.222.31-.148.57-.366.781-.654.216-.292.379-.649.489-1.072a5.94 5.94 0 0 0 .165-1.473Zm9.279-4.913v1.003H94.7V129H93.48v-9.242h5.675Zm5.413 5.617H102.1v-.996h2.469c.478 0 .865-.076 1.161-.229.297-.152.513-.364.648-.634.14-.271.209-.58.209-.927 0-.318-.069-.616-.209-.895a1.543 1.543 0 0 0-.648-.673c-.296-.174-.683-.26-1.161-.26h-2.184V129h-1.225v-9.242h3.409c.698 0 1.288.12 1.771.362.482.241.848.575 1.098 1.003.25.423.374.907.374 1.453 0 .593-.124 1.098-.374 1.517-.25.419-.616.739-1.098.959-.483.216-1.073.323-1.771.323Zm7.838-4.798-3.06 8.423h-1.25l3.523-9.242h.806l-.019.819Zm2.564 8.423-3.066-8.423-.019-.819h.806l3.536 9.242h-1.257Zm-.159-3.421v1.003h-5.192v-1.003h5.192Zm6.359-4.901h1.53a3.93 3.93 0 0 1 1.479.273c.457.178.855.432 1.194.762.342.33.609.724.799 1.181.191.452.286.954.286 1.504s-.095 1.054-.286 1.511a3.55 3.55 0 0 1-.799 1.187c-.339.33-.737.586-1.194.768a4.009 4.009 0 0 1-1.479.266h-1.53a4.009 4.009 0 0 1-1.479-.266 3.692 3.692 0 0 1-1.193-.768 3.519 3.519 0 0 1-.793-1.175 3.95 3.95 0 0 1-.28-1.51c0-.55.093-1.052.28-1.505a3.5 3.5 0 0 1 .793-1.18 3.63 3.63 0 0 1 1.193-.775 3.93 3.93 0 0 1 1.479-.273Zm0 .965c-.554 0-1.024.116-1.409.349-.385.229-.677.55-.876.965-.199.415-.298.899-.298 1.454 0 .419.055.797.165 1.136.114.338.281.628.501.87.22.241.491.427.813.558.322.131.69.197 1.104.197h1.543c.55 0 1.015-.114 1.396-.343.385-.233.677-.556.876-.971.203-.419.305-.906.305-1.46 0-.415-.057-.791-.171-1.13a2.446 2.446 0 0 0-.502-.87 2.152 2.152 0 0 0-.806-.558 2.857 2.857 0 0 0-1.098-.197h-1.543Zm1.359-2.266v10.004h-1.175v-10.004h1.175Zm7.254 7.503 4.551-7.122h1.225V129h-1.225v-7.128L129.784 129h-1.219v-9.242h1.219v7.122Zm13.633-1.479h-2.596l-.603-.248c-.669-.211-1.183-.535-1.543-.971-.359-.44-.539-.986-.539-1.638 0-.596.131-1.102.393-1.517.267-.414.644-.73 1.13-.945.491-.216 1.071-.324 1.739-.324h2.958V129h-1.225v-8.239h-1.733c-.677 0-1.187.161-1.529.482-.339.322-.508.756-.508 1.301 0 .356.074.673.222.953.152.279.377.499.673.66.296.161.664.241 1.104.241h2.063l-.006 1.003Zm-2.082-.635L139.088 129h-1.301l2.31-4.234h1.238Zm-80.173 21.295h1.219a3.887 3.887 0 0 1-.502 1.568c-.27.461-.653.827-1.148 1.098-.496.267-1.114.4-1.854.4a3.518 3.518 0 0 1-1.48-.305 3.29 3.29 0 0 1-1.135-.863 4.04 4.04 0 0 1-.737-1.352 5.77 5.77 0 0 1-.253-1.765v-.92c0-.648.084-1.234.253-1.758.174-.529.422-.982.743-1.359a3.317 3.317 0 0 1 1.174-.869 3.745 3.745 0 0 1 1.543-.305c.698 0 1.288.131 1.77.393.483.263.858.627 1.124 1.092.271.461.438.997.502 1.606h-1.219a3.403 3.403 0 0 0-.33-1.111 1.714 1.714 0 0 0-.685-.723c-.297-.17-.684-.254-1.162-.254-.41 0-.772.078-1.086.235-.309.156-.569.378-.78.666a3.105 3.105 0 0 0-.47 1.035 5.258 5.258 0 0 0-.159 1.339v.933c0 .453.047.878.14 1.276.097.398.243.747.438 1.048.195.3.442.537.742.71.301.17.657.254 1.067.254.52 0 .935-.082 1.244-.247.309-.165.542-.402.698-.711a3.61 3.61 0 0 0 .343-1.111Zm4.67-6.303V149h-1.225v-9.242h1.225Zm5.694 0-4.011 5.084h-2.171l-.19-1.015h1.63l3.225-4.069h1.517ZM70.295 149l-3.472-4.316.685-1.073L71.793 149h-1.498Zm10.021-4.913v.584c0 .694-.086 1.316-.26 1.866a4.011 4.011 0 0 1-.749 1.403 3.247 3.247 0 0 1-1.174.882c-.453.203-.96.305-1.524.305a3.665 3.665 0 0 1-1.504-.305 3.381 3.381 0 0 1-1.18-.882 4.112 4.112 0 0 1-.769-1.403c-.182-.55-.273-1.172-.273-1.866v-.584c0-.694.09-1.314.267-1.86.182-.55.438-1.018.768-1.403a3.29 3.29 0 0 1 1.174-.888 3.648 3.648 0 0 1 1.505-.305c.563 0 1.07.101 1.523.305.457.203.849.499 1.174.888.33.385.582.853.756 1.403.178.546.266 1.166.266 1.86Zm-1.212.584v-.597c0-.55-.057-1.037-.171-1.46a3.027 3.027 0 0 0-.49-1.066 2.106 2.106 0 0 0-.793-.654 2.41 2.41 0 0 0-1.053-.222c-.381 0-.726.074-1.035.222a2.188 2.188 0 0 0-.787.654 3.198 3.198 0 0 0-.502 1.066 5.43 5.43 0 0 0-.177 1.46v.597c0 .554.059 1.045.177 1.473.119.423.288.78.508 1.072.224.288.489.506.794.654.309.148.653.222 1.034.222.398 0 .752-.074 1.06-.222.31-.148.57-.366.781-.654.216-.292.379-.649.489-1.072.11-.428.165-.919.165-1.473Zm6.956.704h-2.47v-.996h2.47c.478 0 .865-.076 1.161-.229.296-.152.512-.364.648-.634.14-.271.21-.58.21-.927 0-.318-.07-.616-.21-.895a1.549 1.549 0 0 0-.648-.673c-.296-.174-.683-.26-1.161-.26h-2.184V149h-1.225v-9.242h3.409c.698 0 1.288.12 1.77.362.483.241.849.575 1.099 1.003.25.423.374.907.374 1.453 0 .593-.125 1.098-.374 1.517-.25.419-.616.739-1.098.959-.483.216-1.073.323-1.771.323Zm12.408-1.288v.584c0 .694-.087 1.316-.26 1.866a4.011 4.011 0 0 1-.75 1.403 3.248 3.248 0 0 1-1.174.882c-.453.203-.96.305-1.523.305a3.665 3.665 0 0 1-1.505-.305 3.38 3.38 0 0 1-1.18-.882 4.112 4.112 0 0 1-.768-1.403c-.182-.55-.273-1.172-.273-1.866v-.584c0-.694.089-1.314.266-1.86.182-.55.438-1.018.768-1.403.33-.389.722-.685 1.175-.888a3.648 3.648 0 0 1 1.504-.305c.563 0 1.07.101 1.523.305.457.203.849.499 1.175.888.33.385.582.853.755 1.403.178.546.267 1.166.267 1.86Zm-1.213.584v-.597c0-.55-.057-1.037-.171-1.46a3.028 3.028 0 0 0-.489-1.066 2.106 2.106 0 0 0-.793-.654 2.41 2.41 0 0 0-1.054-.222c-.38 0-.726.074-1.035.222a2.187 2.187 0 0 0-.787.654 3.196 3.196 0 0 0-.501 1.066 5.43 5.43 0 0 0-.178 1.46v.597c0 .554.06 1.045.178 1.473.118.423.288.78.508 1.072.224.288.488.506.793.654.309.148.654.222 1.035.222.398 0 .75-.074 1.06-.222.309-.148.569-.366.78-.654.216-.292.38-.649.49-1.072.11-.428.164-.919.164-1.473Zm12.909-4.913v1.003h-4.456V149h-1.219v-9.242h5.675Zm-4.742 3.764h2.52c.677 0 1.248.114 1.714.343.465.224.819.539 1.06.946.241.406.362.882.362 1.428 0 .406-.068.778-.203 1.117a2.456 2.456 0 0 1-.604.876 2.772 2.772 0 0 1-.983.571 4.22 4.22 0 0 1-1.346.197h-3.453v-9.242h1.225v8.245h2.228c.453 0 .819-.082 1.098-.247.284-.169.491-.389.622-.66s.197-.561.197-.87c0-.309-.066-.592-.197-.851a1.427 1.427 0 0 0-.622-.615c-.279-.157-.645-.235-1.098-.235h-2.52v-1.003Zm10.555 2.412 2.443-6.176h1.41l-3.269 7.7a7.046 7.046 0 0 1-.311.628 2.338 2.338 0 0 1-.419.533 1.817 1.817 0 0 1-.616.375c-.241.093-.542.139-.902.139-.101 0-.222-.006-.361-.019a1.56 1.56 0 0 1-.273-.031l.038-.978c.046.008.137.017.273.025.135.005.235.007.298.007.241 0 .432-.049.571-.146.14-.098.252-.22.337-.368.089-.153.169-.307.241-.464l.54-1.225Zm-2.076-6.176 2.571 5.757.304 1.136-1.028.077-3.218-6.97h1.371Zm14.636 8.245V149h-6.995v-.997h6.995Zm-6.798 0v3.269h-1.213l-.006-3.269h1.219Zm7.865 0-.013 3.263h-1.213v-3.263h1.226Zm-2.267-8.245v1.003h-4.049v-1.003h4.049Zm1.054 0V149h-1.219v-9.242h1.219Zm-5.522 0h1.225l-.191 3.72a12.755 12.755 0 0 1-.158 1.548c-.081.47-.18.9-.299 1.289a6.933 6.933 0 0 1-.406 1.047 4.778 4.778 0 0 1-.489.794c-.173.22-.355.402-.546.546a1.872 1.872 0 0 1-.565.298h-.558v-.997h.393a3.43 3.43 0 0 0 .375-.514c.144-.224.286-.514.425-.869.144-.36.269-.798.375-1.314.11-.517.184-1.126.222-1.828l.197-3.72Zm14.547 8.245V149h-4.894v-.997h4.894Zm-4.646-8.245V149h-1.226v-9.242h1.226Zm3.999 3.973v.997h-4.247v-.997h4.247Zm.584-3.973v1.003h-4.831v-1.003h4.831Zm5.622 0V149h-1.206v-9.242h1.206Zm2.971 0v1.003h-7.141v-1.003h7.141Z" fill="#000"/>
  <g opacity=".3" fill="#000">
    <path d="M119.852 55.268h-3.961c-3.029 0-6.093-1.354-6.95-2.57-1.329-1.886-3.922-3.364-5.9-3.364h-6.082c-1.978 0-4.57 1.478-5.9 3.364-.857 1.216-3.921 2.57-6.95 2.57h-3.96a6.57 6.57 0 0 0-6.563 6.563v22.273a6.57 6.57 0 0 0 6.562 6.562h39.704a6.571 6.571 0 0 0 6.562-6.562V61.83a6.57 6.57 0 0 0-6.562-6.563Zm4.687 28.836a4.693 4.693 0 0 1-4.687 4.687H80.148a4.693 4.693 0 0 1-4.687-4.687V61.83a4.693 4.693 0 0 1 4.687-4.688h3.961c3.427 0 7.154-1.478 8.483-3.365.965-1.368 3.005-2.57 4.367-2.57h6.082c1.361 0 3.402 1.202 4.367 2.57 1.329 1.887 5.056 3.365 8.483 3.365h3.961a4.693 4.693 0 0 1 4.687 4.688v22.273Z"/>
    <path d="M100 58.911c-7.54 0-13.675 6.134-13.675 13.676 0 7.54 6.135 13.676 13.675 13.676 7.54 0 13.675-6.135 13.675-13.676 0-7.542-6.135-13.676-13.675-13.676Zm0 25.477c-6.506 0-11.8-5.293-11.8-11.801 0-6.507 5.293-11.8 11.8-11.8 6.507 0 11.8 5.292 11.8 11.8 0 6.507-5.294 11.8-11.8 11.8ZM96.282 54.902h7.436a.937.937 0 1 0 0-1.875h-7.436a.937.937 0 1 0 0 1.875ZM81.41 62.745a2.652 2.652 0 0 0-2.648 2.648 2.652 2.652 0 0 0 2.648 2.649 2.652 2.652 0 0 0 2.649-2.649 2.652 2.652 0 0 0-2.649-2.648Zm0 3.422a.774.774 0 1 1 .002-1.549.774.774 0 0 1-.002 1.549Z"/>
  </g>
</svg>
