<svg width="20" height="20" viewBox="0 0 20 20" fill="none" xmlns="http://www.w3.org/2000/svg">
<path fill-rule="evenodd" clip-rule="evenodd" d="M18.3333 5H16.0924C16.9499 4.17917 17.3716 3.17333 17.3266 2.23917C17.2641 0.920833 16.2741 0 14.9199 0C12.7683 0 10.9641 2.0675 9.99992 3.44333C9.03575 2.0675 7.23159 0 5.07992 0C3.72575 0 2.73575 0.920833 2.67325 2.23917C2.62825 3.17333 3.04992 4.17917 3.90742 5H1.66659C1.20659 5 0.833252 5.37333 0.833252 5.83333V7.5C0.833252 7.96 1.20659 8.33333 1.66659 8.33333H8.74992V5H8.04742C5.41408 4.73833 4.29158 3.2775 4.33825 2.31917C4.35825 1.88667 4.60825 1.66667 5.07992 1.66667C6.63492 1.66667 8.28242 3.7975 9.03242 5H10.9691C11.7016 3.83 13.3749 1.66667 14.9199 1.66667C15.3916 1.66667 15.6416 1.88667 15.6616 2.31917C15.7083 3.2775 14.5858 4.73833 11.9524 5H11.2499V8.33333H18.3333C18.7941 8.33333 19.1666 7.96 19.1666 7.5V5.83333C19.1666 5.37333 18.7941 5 18.3333 5ZM8.74992 10H2.49992V17.5C2.49992 18.42 3.24659 19.1667 4.16659 19.1667H8.74992V10ZM11.2499 19.1667V10H17.4999V17.5C17.4999 18.42 16.7533 19.1667 15.8333 19.1667H11.2499Z" fill="white"/>
</svg>
