<svg width="28" height="28" viewBox="0 0 28 28" fill="none" xmlns="http://www.w3.org/2000/svg">
<circle cx="14" cy="14" r="14" fill="#AD0C10"/>
<path fill-rule="evenodd" clip-rule="evenodd" d="M20.6666 10H18.874C19.56 9.34333 19.8973 8.53867 19.8613 7.79133C19.8113 6.73667 19.0193 6 17.936 6C16.2146 6 14.7713 7.654 14 8.75467C13.2286 7.654 11.7853 6 10.064 6C8.98063 6 8.18863 6.73667 8.13863 7.79133C8.10263 8.53867 8.43996 9.34333 9.12596 10H7.33329C6.96529 10 6.66663 10.2987 6.66663 10.6667V12C6.66663 12.368 6.96529 12.6667 7.33329 12.6667H13V10H12.438C10.3313 9.79067 9.43329 8.622 9.47063 7.85533C9.48663 7.50933 9.68663 7.33333 10.064 7.33333C11.308 7.33333 12.626 9.038 13.226 10H14.7753C15.3613 9.064 16.7 7.33333 17.936 7.33333C18.3133 7.33333 18.5133 7.50933 18.5293 7.85533C18.5666 8.622 17.6686 9.79067 15.562 10H15V12.6667H20.6666C21.0353 12.6667 21.3333 12.368 21.3333 12V10.6667C21.3333 10.2987 21.0353 10 20.6666 10ZM13 14H7.99996V20C7.99996 20.736 8.59729 21.3333 9.33329 21.3333H13V14ZM15 21.3333V14H20V20C20 20.736 19.4026 21.3333 18.6666 21.3333H15Z" fill="white"/>
</svg>
