<svg width="12" height="24" viewBox="0 0 12 24" fill="none" xmlns="http://www.w3.org/2000/svg">
<path d="M0.818169 5.45457C1.27004 5.45457 1.63635 5.82088 1.63635 6.27275V18C1.63635 20.4109 3.58909 22.3636 5.99997 22.3636C8.41085 22.3636 10.3636 20.4109 10.3636 18V4.36362C10.3636 2.85817 9.14184 1.63636 7.63639 1.63636C6.13093 1.63636 4.90908 2.85817 4.90908 4.36362V15.8182C4.90908 16.4182 5.39452 16.9091 5.99997 16.9091C6.60542 16.9091 7.09086 16.4182 7.09086 15.8182V6.27275C7.09086 5.82088 7.45718 5.45457 7.90904 5.45457C8.36091 5.45457 8.72723 5.82088 8.72723 6.27275V15.8182C8.72723 17.3237 7.50542 18.5455 5.99997 18.5455C4.49452 18.5455 3.27271 17.3236 3.27271 15.8182V4.36362C3.27271 1.95275 5.22546 0 7.63633 0C10.0472 0 12 1.95275 12 4.36362V18C12 21.3164 9.31085 24 5.99997 24C2.68909 24 -1.33514e-05 21.3164 -1.33514e-05 18V6.27275C-1.33514e-05 5.82088 0.3663 5.45457 0.818169 5.45457Z" fill="#797979"/>
</svg>
