<svg width="24" height="24" viewBox="0 0 24 24" fill="none" xmlns="http://www.w3.org/2000/svg">
<g id="Exit">
<path id="icon" fill-rule="evenodd" clip-rule="evenodd" d="M15.5 17.005C15.5 16.453 15.947 16.005 16.5 16.005C17.053 16.005 17.5 16.453 17.5 17.005V18.661C17.5 20.226 16.226 21.5 14.658 21.5H5.843C4.275 21.5 3 20.226 3 18.661V5.839C3 4.274 4.275 3 5.843 3H14.658C16.226 3 17.5 4.274 17.5 5.839V7.495C17.5 8.047 17.053 8.495 16.5 8.495C15.947 8.495 15.5 8.047 15.5 7.495V5.839C15.5 5.376 15.122 5 14.658 5H5.843C5.378 5 5 5.376 5 5.839V18.661C5 19.123 5.378 19.5 5.843 19.5H14.658C15.122 19.5 15.5 19.123 15.5 18.661V17.005ZM20.7768 8.5499L23.7148 11.5499C24.0948 11.9389 24.0948 12.5609 23.7148 12.9489L20.7768 15.9489C20.5798 16.1499 20.3208 16.2499 20.0618 16.2499C19.8088 16.2499 19.5568 16.1539 19.3608 15.9639C18.9668 15.5779 18.9608 14.9449 19.3468 14.5499L20.6208 13.2499H10.4998C9.9468 13.2499 9.4998 12.8019 9.4998 12.2499C9.4998 11.6969 9.9468 11.2499 10.4998 11.2499H20.6208L19.3468 9.9489C18.9608 9.5549 18.9668 8.9219 19.3608 8.5349C19.7568 8.1499 20.3888 8.1549 20.7768 8.5499Z" fill="#797979"/>
</g>
</svg>
