<svg width="16" height="16" viewBox="0 0 16 16" fill="none" xmlns="http://www.w3.org/2000/svg">
<path fill-rule="evenodd" clip-rule="evenodd" d="M14.6667 4H12.874C13.56 3.34333 13.8973 2.53867 13.8613 1.79133C13.8113 0.736667 13.0193 0 11.936 0C10.2147 0 8.77133 1.654 8 2.75467C7.22867 1.654 5.78533 0 4.064 0C2.98067 0 2.18867 0.736667 2.13867 1.79133C2.10267 2.53867 2.44 3.34333 3.126 4H1.33333C0.965333 4 0.666666 4.29867 0.666666 4.66667V6C0.666666 6.368 0.965333 6.66667 1.33333 6.66667H7V4H6.438C4.33133 3.79067 3.43333 2.622 3.47067 1.85533C3.48667 1.50933 3.68667 1.33333 4.064 1.33333C5.308 1.33333 6.626 3.038 7.226 4H8.77533C9.36133 3.064 10.7 1.33333 11.936 1.33333C12.3133 1.33333 12.5133 1.50933 12.5293 1.85533C12.5667 2.622 11.6687 3.79067 9.562 4H9V6.66667H14.6667C15.0353 6.66667 15.3333 6.368 15.3333 6V4.66667C15.3333 4.29867 15.0353 4 14.6667 4ZM7 8H2V14C2 14.736 2.59733 15.3333 3.33333 15.3333H7V8ZM9 15.3333V8H14V14C14 14.736 13.4027 15.3333 12.6667 15.3333H9Z" fill="#AD0C10"/>
</svg>
