<svg width="24" height="24" viewBox="0 0 24 24" fill="none" xmlns="http://www.w3.org/2000/svg">
<path d="M22.4062 0H14.1153C13.8565 0 13.6466 0.209906 13.6466 0.46875C13.6466 0.727594 13.8565 0.9375 14.1153 0.9375H20.0422C20.2342 2.51339 21.4866 3.76575 23.0625 3.9578V9.3547C21.4866 9.54675 20.2342 10.7991 20.0422 12.375H13.7815V10.0627C15.0439 9.40331 15.8438 8.09869 15.8438 6.65625C15.8438 4.5368 14.1195 2.8125 12 2.8125C9.88055 2.8125 8.15625 4.5368 8.15625 6.65625C8.15625 8.09737 8.95673 9.40378 10.219 10.0632V12.375H3.9578C3.76575 10.7991 2.51339 9.54675 0.9375 9.3547V3.9578C2.51339 3.76575 3.76575 2.51339 3.9578 0.9375H9.89658C10.1554 0.9375 10.3653 0.727594 10.3653 0.46875C10.3653 0.209906 10.1554 0 9.89658 0H1.59375C0.714938 0 0 0.714938 0 1.59375V11.7188C0 12.5976 0.714938 13.3125 1.59375 13.3125H7.09823C7.0252 13.4897 6.98461 13.6835 6.98461 13.8867C6.98461 14.7203 7.6628 15.3984 8.49633 15.3984H9.58875C9.23344 16.1862 9.04711 17.0431 9.04711 17.9123C9.04711 18.7778 9.23625 19.6488 9.59367 20.4375H9.47137C9.21253 20.4375 9.00262 20.6474 9.00262 20.9062V23.5312C9.00262 23.7901 9.21253 24 9.47137 24H17.5339C17.7927 24 18.0026 23.7901 18.0026 23.5312V20.9062C18.0026 20.6474 17.7927 20.4375 17.5339 20.4375H16.9491L17.7983 18.8164C18.3598 17.7444 18.6566 16.5382 18.6566 15.3281V13.3125H22.4062C23.2851 13.3125 24 12.5976 24 11.7188V1.59375C24 0.714938 23.2851 0 22.4062 0ZM20.9889 0.9375H22.4062C22.7681 0.9375 23.0625 1.23188 23.0625 1.59375V3.01106C22.0042 2.83266 21.1673 1.99575 20.9889 0.9375ZM15.094 13.3125V13.9922C15.094 14.3541 14.7997 14.6484 14.4378 14.6484C14.0759 14.6484 13.7815 14.3541 13.7815 13.9922V13.3125H15.094ZM9.09375 6.65625C9.09375 5.05373 10.3975 3.75 12 3.75C13.6025 3.75 14.9062 5.05373 14.9062 6.65625C14.9062 7.64859 14.4057 8.55473 13.5965 9.08573C13.305 8.49853 12.6991 8.09377 12.0003 8.09377C11.3014 8.09377 10.6956 8.49853 10.404 9.08578C9.59489 8.55459 9.09375 7.64766 9.09375 6.65625ZM1.59375 0.9375H3.01106C2.83266 1.99575 1.99575 2.83266 0.9375 3.01106V1.59375C0.9375 1.23188 1.23188 0.9375 1.59375 0.9375ZM0.9375 11.7188V10.3014C1.99575 10.4798 2.83266 11.3167 3.01106 12.375H1.59375C1.23188 12.375 0.9375 12.0806 0.9375 11.7188ZM7.92216 13.8867C7.92216 13.5701 8.17973 13.3125 8.49638 13.3125H10.219V14.2617L10.1004 14.4609H8.49638C8.17973 14.4609 7.92216 14.2034 7.92216 13.8867ZM17.0652 23.0625H9.94017V21.375H17.0652V23.0625ZM17.719 15.3281C17.719 16.3873 17.4592 17.4431 16.9678 18.3814L15.8907 20.4375H10.6283L10.4757 20.1127C10.1544 19.4288 9.98466 18.6679 9.98466 17.9123C9.98466 16.9807 10.2365 16.0652 10.7129 15.2648L11.0906 14.6304C11.1337 14.5578 11.1565 14.475 11.1565 14.3906V9.87502C11.1565 9.40978 11.535 9.03127 12.0003 9.03127C12.4655 9.03127 12.844 9.40978 12.844 9.87502V13.9922C12.844 14.871 13.559 15.5859 14.4378 15.5859C15.3166 15.5859 16.0315 14.871 16.0315 13.9922V13.3125H17.719V15.3281ZM22.4062 12.375H20.9889C21.1673 11.3167 22.0042 10.4798 23.0625 10.3014V11.7188C23.0625 12.0806 22.7681 12.375 22.4062 12.375Z" fill="#C2C2C2"/>
<path d="M20.3438 6.65625C20.3438 5.82914 19.6709 5.15625 18.8438 5.15625C18.0166 5.15625 17.3438 5.82914 17.3438 6.65625C17.3438 7.48336 18.0166 8.15625 18.8438 8.15625C19.6709 8.15625 20.3438 7.48336 20.3438 6.65625ZM18.2812 6.65625C18.2812 6.34608 18.5336 6.09375 18.8438 6.09375C19.1539 6.09375 19.4062 6.34608 19.4062 6.65625C19.4062 6.96642 19.1539 7.21875 18.8438 7.21875C18.5336 7.21875 18.2812 6.96642 18.2812 6.65625Z" fill="#C2C2C2"/>
<path d="M3.65625 6.65625C3.65625 7.48336 4.32914 8.15625 5.15625 8.15625C5.98336 8.15625 6.65625 7.48336 6.65625 6.65625C6.65625 5.82914 5.98336 5.15625 5.15625 5.15625C4.32914 5.15625 3.65625 5.82914 3.65625 6.65625ZM5.71875 6.65625C5.71875 6.96642 5.46642 7.21875 5.15625 7.21875C4.84608 7.21875 4.59375 6.96642 4.59375 6.65625C4.59375 6.34608 4.84608 6.09375 5.15625 6.09375C5.46642 6.09375 5.71875 6.34608 5.71875 6.65625Z" fill="#C2C2C2"/>
<path d="M12 0.9375C12.1233 0.9375 12.2442 0.887344 12.3314 0.800109C12.4186 0.712969 12.4688 0.592031 12.4688 0.46875C12.4688 0.345469 12.4186 0.224531 12.3314 0.137344C12.2442 0.0501094 12.1233 0 12 0C11.8767 0 11.7558 0.0501094 11.6686 0.137344C11.5814 0.224578 11.5312 0.345469 11.5312 0.46875C11.5312 0.592031 11.5814 0.712969 11.6686 0.800109C11.7558 0.887344 11.8767 0.9375 12 0.9375Z" fill="#C2C2C2"/>
</svg>
