<svg width="20" height="20" viewBox="0 0 20 20" fill="none" xmlns="http://www.w3.org/2000/svg">
<path fill-rule="evenodd" clip-rule="evenodd" d="M1.6665 10.0001C1.6665 14.6017 5.39817 18.3334 9.99984 18.3334C14.6023 18.3334 18.3332 14.6017 18.3332 10.0001C18.3332 5.39758 14.6023 1.66675 9.99984 1.66675C5.39817 1.66675 1.6665 5.39758 1.6665 10.0001Z" fill="#AD0C10"/>
<path fill-rule="evenodd" clip-rule="evenodd" d="M9.99976 6.66675C10.5181 6.66675 10.9373 6.24675 10.9373 5.72925C10.9373 5.21175 10.5181 4.79175 9.99976 4.79175C9.48226 4.79175 9.06226 5.21175 9.06226 5.72925C9.06226 6.24675 9.48226 6.66675 9.99976 6.66675ZM9.16642 14.1667C9.16642 14.6267 9.53892 15.0001 9.99975 15.0001C10.4606 15.0001 10.8331 14.6267 10.8331 14.1667V9.06258C10.8331 8.60258 10.4606 8.22925 9.99975 8.22925C9.53892 8.22925 9.16642 8.60258 9.16642 9.06258V14.1667Z" fill="white"/>
</svg>
