<svg width="10" height="10" viewBox="0 0 10 10" fill="none" xmlns="http://www.w3.org/2000/svg">
<g clip-path="url(#clip0_206_1614)">
<path d="M0.114571 4.7235C0.114688 4.72338 0.114785 4.72324 0.114922 4.72312L2.15602 2.69187C2.30893 2.53971 2.55625 2.54027 2.70846 2.6932C2.86064 2.84611 2.86006 3.09344 2.70715 3.24562L1.33676 4.60937H9.60938C9.82512 4.60937 10 4.78426 10 5C10 5.21574 9.82512 5.39062 9.60938 5.39062H1.33678L2.70713 6.75437C2.86004 6.90656 2.86062 7.15389 2.70844 7.3068C2.55623 7.45975 2.30889 7.46027 2.156 7.30812L0.114902 5.27687C0.114785 5.27676 0.114687 5.27662 0.114551 5.2765C-0.0384378 5.12381 -0.0379496 4.87568 0.114571 4.7235Z" fill="#E30614"/>
</g>
<defs>
<clipPath id="clip0_206_1614">
<rect width="10" height="10" fill="white" transform="matrix(-1 0 0 1 10 0)"/>
</clipPath>
</defs>
</svg>
