<svg width="32" height="32" viewBox="0 0 32 32" fill="none" xmlns="http://www.w3.org/2000/svg">
<rect width="32" height="32" rx="16" fill="black"/>
<path fill-rule="evenodd" clip-rule="evenodd" d="M26.1772 11.0232C26.3256 10.5287 26.1772 10.1653 25.4714 10.1653H23.1375C22.5441 10.1653 22.2707 10.4792 22.1223 10.8254C22.1223 10.8254 20.9354 13.7183 19.254 15.5974C18.71 16.1413 18.4628 16.3142 18.166 16.3142C18.0177 16.3142 17.803 16.1413 17.803 15.6469V11.0232C17.803 10.4297 17.6307 10.1653 17.1361 10.1653H13.4686C13.0979 10.1653 12.8748 10.4407 12.8748 10.7017C12.8748 11.2644 13.7153 11.3941 13.802 12.9764V16.4134C13.802 17.1669 13.666 17.3036 13.3693 17.3036C12.5781 17.3036 10.6536 14.3976 9.51202 11.0727C9.2883 10.4263 9.06391 10.1653 8.46744 10.1653H6.13356C5.46674 10.1653 5.33337 10.4792 5.33337 10.8254C5.33337 11.4436 6.12473 14.5096 9.01757 18.5646C10.9464 21.3336 13.6633 22.8349 16.1359 22.8349C17.6196 22.8349 17.803 22.5015 17.803 21.9272V19.8342C17.803 19.1674 17.9435 19.0344 18.4131 19.0344C18.7595 19.0344 19.3528 19.2074 20.7376 20.5425C22.32 22.1247 22.5807 22.8349 23.4709 22.8349H25.8048C26.4716 22.8349 26.8051 22.5015 26.6127 21.8435C26.4023 21.1877 25.6468 20.2365 24.6442 19.1085C24.1003 18.4656 23.2842 17.7732 23.0372 17.4271C22.6909 16.982 22.7898 16.7843 23.0372 16.3889C23.0372 16.3889 25.8805 12.3833 26.1772 11.0233V11.0232Z" fill="white"/>
</svg>
