<svg width="36" height="36" viewBox="0 0 36 36" fill="none" xmlns="http://www.w3.org/2000/svg">
<path fill-rule="evenodd" clip-rule="evenodd" d="M18 34.65C27.1955 34.65 34.65 27.1955 34.65 18C34.65 8.80446 27.1955 1.35 18 1.35C8.80446 1.35 1.35 8.80446 1.35 18C1.35 27.1955 8.80446 34.65 18 34.65ZM18 36C27.9411 36 36 27.9411 36 18C36 8.05887 27.9411 0 18 0C8.05887 0 0 8.05887 0 18C0 27.9411 8.05887 36 18 36Z" fill="#797979"/>
<path fill-rule="evenodd" clip-rule="evenodd" d="M18.125 13.25C18.746 13.25 19.25 12.747 19.25 12.125C19.25 11.504 18.746 11 18.125 11C17.503 11 17 11.504 17 12.125C17 12.747 17.503 13.25 18.125 13.25ZM17.125 24.25C17.125 24.802 17.572 25.25 18.125 25.25C18.678 25.25 19.125 24.802 19.125 24.25V17.125C19.125 16.573 18.678 16.125 18.125 16.125C17.572 16.125 17.125 16.573 17.125 17.125V24.25Z" fill="#797979"/>
</svg>
