<svg width="20" height="20" viewBox="0 0 20 20" fill="none" xmlns="http://www.w3.org/2000/svg">
<g id="Sale">
<path id="icon" fill-rule="evenodd" clip-rule="evenodd" d="M13.9173 13.9172C13.6132 14.2214 13.2123 14.3739 12.8132 14.3739C12.4123 14.3739 12.0123 14.2214 11.7082 13.9172C11.0982 13.3089 11.0982 12.3172 11.7082 11.7081C12.3157 11.0997 13.3082 11.0981 13.9173 11.7081C14.5265 12.3172 14.5265 13.3089 13.9173 13.9172ZM7.4015 13.7764C7.23817 13.9389 7.02484 14.0206 6.81234 14.0206C6.599 14.0206 6.38567 13.9389 6.22317 13.7764C5.89734 13.4506 5.89734 12.9239 6.22317 12.5981L12.5982 6.2239C12.924 5.89807 13.4507 5.89807 13.7765 6.2239C14.1023 6.5489 14.1023 7.0764 13.7765 7.40224L7.4015 13.7764ZM7.18734 5.62557C8.049 5.62557 8.74984 6.3264 8.74984 7.18807C8.74984 8.04974 8.049 8.75057 7.18734 8.75057C6.32567 8.75057 5.62484 8.04974 5.62484 7.18807C5.62484 6.3264 6.32567 5.62557 7.18734 5.62557ZM9.99984 1.66724C5.39734 1.66724 1.6665 5.39724 1.6665 10.0006C1.6665 14.6022 5.39734 18.3339 9.99984 18.3339C14.6015 18.3339 18.3332 14.6022 18.3332 10.0006C18.3332 5.39724 14.6015 1.66724 9.99984 1.66724Z" fill="#AD0C10"/>
</g>
</svg>
