<svg width="24" height="24" viewBox="0 0 24 24" fill="none" xmlns="http://www.w3.org/2000/svg">
<path d="M21 8V20.993C21.0009 21.1243 20.976 21.2545 20.9266 21.3762C20.8772 21.4979 20.8043 21.6087 20.7121 21.7022C20.6199 21.7957 20.5101 21.8701 20.3892 21.9212C20.2682 21.9723 20.1383 21.9991 20.007 22H3.993C3.72981 22 3.47739 21.8955 3.2912 21.7095C3.105 21.5235 3.00027 21.2712 3 21.008V2.992C3 2.455 3.449 2 4.002 2H14.997L21 8ZM19 9H14V4H5V20H19V9Z" fill="black"/>
<path fill-rule="evenodd" clip-rule="evenodd" d="M12.7079 17.713L15.7069 14.774C16.1019 14.385 16.1079 13.753 15.7179 13.359C15.3289 12.966 14.6929 12.961 14.2969 13.348L13.0079 14.612L13.0079 10C13.0079 9.447 12.5579 9 12.0029 9C11.4489 9 10.9989 9.447 10.9989 10L10.9989 14.611L9.70993 13.348C9.31393 12.961 8.67793 12.966 8.28993 13.359C8.09693 13.554 7.99993 13.808 7.99993 14.061C7.99993 14.319 8.10093 14.577 8.29993 14.774L11.2989 17.713C11.6889 18.096 12.3169 18.096 12.7079 17.713Z" fill="black"/>
</svg>
